<mxfile host="www.draw.io" modified="2023-04-04T09:12:16.022Z" agent="Mozilla/5.0 (Windows NT 10.0; Win64; x64) AppleWebKit/537.36 (KHTML, like Gecko) Chrome/111.0.0.0 Safari/537.36 Edg/111.0.1661.62" etag="CWv_nmoz_IfBHvER55i9" version="21.1.4" type="device">
  <diagram name="Page-1" id="WAI_kHuNiL9nzPdvUI3d">
    <mxGraphModel dx="1547" dy="2677" grid="1" gridSize="10" guides="1" tooltips="1" connect="1" arrows="1" fold="1" page="1" pageScale="1" pageWidth="850" pageHeight="1100" math="0" shadow="0">
      <root>
        <mxCell id="0" />
        <mxCell id="1" parent="0" />
        <mxCell id="gxmgwyy8D1BKnNXjqqN9-291" value="" style="verticalLabelPosition=bottom;verticalAlign=top;html=1;shape=mxgraph.basic.rect;fillColor2=none;strokeWidth=7;size=20;indent=5;fillColor=none;strokeColor=#FF66FF;movable=0;resizable=0;rotatable=0;deletable=0;editable=0;locked=1;connectable=0;" parent="1" vertex="1">
          <mxGeometry x="635" y="-670" width="190" height="205" as="geometry" />
        </mxCell>
        <mxCell id="gxmgwyy8D1BKnNXjqqN9-192" value="" style="verticalLabelPosition=bottom;verticalAlign=top;html=1;shape=mxgraph.basic.rect;fillColor2=none;strokeWidth=7;size=20;indent=5;fillColor=none;strokeColor=#4D9900;movable=0;resizable=0;rotatable=0;deletable=0;editable=0;locked=1;connectable=0;" parent="1" vertex="1">
          <mxGeometry x="610" y="-1110" width="240" height="400" as="geometry" />
        </mxCell>
        <mxCell id="gxmgwyy8D1BKnNXjqqN9-191" value="" style="verticalLabelPosition=bottom;verticalAlign=top;html=1;shape=mxgraph.basic.rect;fillColor2=none;strokeWidth=7;size=20;indent=5;fillColor=none;strokeColor=#6c8ebf;movable=1;resizable=1;rotatable=1;deletable=1;editable=1;locked=0;connectable=1;" parent="1" vertex="1">
          <mxGeometry x="900" y="-1110" width="240" height="1020" as="geometry" />
        </mxCell>
        <mxCell id="xwbP8etTTOFJ-Utlb-hV-6" value="AMDMIGraphX" style="rounded=0;html=1;labelBorderColor=none;labelBackgroundColor=#00FFFF;fillColor=#00FFFF;movable=0;resizable=0;rotatable=0;deletable=0;editable=0;locked=1;connectable=0;" parent="1" vertex="1">
          <mxGeometry x="960" y="-960" width="120" height="60" as="geometry" />
        </mxCell>
        <mxCell id="xwbP8etTTOFJ-Utlb-hV-7" value="actions" style="rounded=0;html=1;labelBorderColor=none;labelBackgroundColor=#00FFFF;fillColor=#00FFFF;movable=0;resizable=0;rotatable=0;deletable=0;editable=0;locked=1;connectable=0;" parent="1" vertex="1">
          <mxGeometry x="960" y="-880" width="120" height="60" as="geometry" />
        </mxCell>
        <mxCell id="xwbP8etTTOFJ-Utlb-hV-9" value="performance-backup" style="rounded=0;html=1;labelBorderColor=none;labelBackgroundColor=#00FFFF;fillColor=#00FFFF;movable=0;resizable=0;rotatable=0;deletable=0;editable=0;locked=1;connectable=0;" parent="1" vertex="1">
          <mxGeometry x="960" y="-450" width="120" height="60" as="geometry" />
        </mxCell>
        <mxCell id="xwbP8etTTOFJ-Utlb-hV-10" value="guidelines" style="rounded=0;html=1;labelBorderColor=none;labelBackgroundColor=#00FFFF;fillColor=#00FFFF;movable=0;resizable=0;rotatable=0;deletable=0;editable=0;locked=1;connectable=0;" parent="1" vertex="1">
          <mxGeometry x="960" y="-360" width="120" height="60" as="geometry" />
        </mxCell>
        <mxCell id="xwbP8etTTOFJ-Utlb-hV-11" value="htec_backup" style="rounded=0;html=1;labelBorderColor=none;labelBackgroundColor=#00FFFF;fillColor=#00FFFF;movable=0;resizable=0;rotatable=0;deletable=0;editable=0;locked=1;connectable=0;" parent="1" vertex="1">
          <mxGeometry x="960" y="-540" width="120" height="60" as="geometry" />
        </mxCell>
        <mxCell id="xwbP8etTTOFJ-Utlb-hV-12" value="onnxruntime" style="rounded=0;html=1;labelBorderColor=none;labelBackgroundColor=#00FFFF;fillColor=#00FFFF;movable=0;resizable=0;rotatable=0;deletable=0;editable=0;locked=1;connectable=0;" parent="1" vertex="1">
          <mxGeometry x="960" y="-720" width="120" height="60" as="geometry" />
        </mxCell>
        <mxCell id="xwbP8etTTOFJ-Utlb-hV-13" value="comparison-results" style="rounded=0;html=1;labelBorderColor=none;labelBackgroundColor=#00FFFF;fillColor=#00FFFF;movable=0;resizable=0;rotatable=0;deletable=0;editable=0;locked=1;connectable=0;" parent="1" vertex="1">
          <mxGeometry x="960" y="-270" width="120" height="60" as="geometry" />
        </mxCell>
        <mxCell id="xwbP8etTTOFJ-Utlb-hV-14" value="rocm-migraphx" style="rounded=0;html=1;labelBorderColor=none;labelBackgroundColor=#00FFFF;fillColor=#00FFFF;movable=0;resizable=0;rotatable=0;deletable=0;editable=0;locked=1;connectable=0;" parent="1" vertex="1">
          <mxGeometry x="960" y="-630" width="120" height="60" as="geometry" />
        </mxCell>
        <mxCell id="xwbP8etTTOFJ-Utlb-hV-15" value="miopen-databases" style="rounded=0;html=1;labelBorderColor=none;labelBackgroundColor=#00FFFF;fillColor=#00FFFF;movable=0;resizable=0;rotatable=0;deletable=0;editable=0;locked=1;connectable=0;" parent="1" vertex="1">
          <mxGeometry x="960" y="-180" width="120" height="60" as="geometry" />
        </mxCell>
        <mxCell id="xwbP8etTTOFJ-Utlb-hV-17" value="AMDMIGraphX" style="rounded=0;whiteSpace=wrap;html=1;labelBackgroundColor=#2CFF14;labelBorderColor=#2CFF14;fillColor=#2CFF14;movable=0;resizable=0;rotatable=0;deletable=0;editable=0;locked=1;connectable=0;" parent="1" vertex="1">
          <mxGeometry x="670" y="-960" width="120" height="60" as="geometry" />
        </mxCell>
        <mxCell id="xwbP8etTTOFJ-Utlb-hV-18" value="migraphx-benchmark" style="rounded=0;whiteSpace=wrap;html=1;labelBackgroundColor=#2CFF14;labelBorderColor=#2CFF14;fillColor=#2CFF14;movable=0;resizable=0;rotatable=0;deletable=0;editable=0;locked=1;connectable=0;" parent="1" vertex="1">
          <mxGeometry x="670" y="-880" width="120" height="60" as="geometry" />
        </mxCell>
        <mxCell id="xwbP8etTTOFJ-Utlb-hV-29" value="AMD&lt;br&gt;&lt;font style=&quot;font-size: 21px;&quot;&gt;ROCm Software Platform&lt;br&gt;&lt;br style=&quot;font-size: 21px;&quot;&gt;&lt;/font&gt;" style="ellipse;whiteSpace=wrap;html=1;fontSize=21;fillColor=#2CFF14;movable=0;resizable=0;rotatable=0;deletable=0;editable=0;locked=1;connectable=0;" parent="1" vertex="1">
          <mxGeometry x="615" y="-1105" width="230" height="120" as="geometry" />
        </mxCell>
        <mxCell id="xwbP8etTTOFJ-Utlb-hV-32" value="" style="endArrow=classic;startArrow=classic;html=1;rounded=0;exitX=1;exitY=0.5;exitDx=0;exitDy=0;entryX=0;entryY=0.5;entryDx=0;entryDy=0;strokeWidth=3;movable=0;resizable=0;rotatable=0;deletable=0;editable=0;locked=1;connectable=0;" parent="1" source="xwbP8etTTOFJ-Utlb-hV-18" target="xwbP8etTTOFJ-Utlb-hV-7" edge="1">
          <mxGeometry width="50" height="50" relative="1" as="geometry">
            <mxPoint x="530" y="-735" as="sourcePoint" />
            <mxPoint x="580" y="-725" as="targetPoint" />
          </mxGeometry>
        </mxCell>
        <mxCell id="xwbP8etTTOFJ-Utlb-hV-38" value="github action workflows" style="rounded=0;html=1;labelBorderColor=none;labelBackgroundColor=none;fillColor=#FF9933;movable=0;resizable=0;rotatable=0;deletable=0;editable=0;locked=1;connectable=0;" parent="1" vertex="1">
          <mxGeometry x="1275" y="-790" width="130" height="20" as="geometry" />
        </mxCell>
        <mxCell id="xwbP8etTTOFJ-Utlb-hV-40" value="backup.yml" style="rounded=0;html=1;labelBorderColor=none;labelBackgroundColor=none;fillColor=#FFB366;movable=0;resizable=0;rotatable=0;deletable=0;editable=0;locked=1;connectable=0;" parent="1" vertex="1">
          <mxGeometry x="1540" y="-865" width="140" height="20" as="geometry" />
        </mxCell>
        <mxCell id="xwbP8etTTOFJ-Utlb-hV-41" value="benchmark.yml" style="rounded=0;html=1;labelBorderColor=none;labelBackgroundColor=none;fillColor=#FFB366;movable=0;resizable=0;rotatable=0;deletable=0;editable=0;locked=1;connectable=0;" parent="1" vertex="1">
          <mxGeometry x="1540" y="-835" width="140" height="20" as="geometry" />
        </mxCell>
        <mxCell id="xwbP8etTTOFJ-Utlb-hV-43" value="history.yml" style="rounded=0;html=1;labelBorderColor=none;labelBackgroundColor=none;fillColor=#FFB366;movable=0;resizable=0;rotatable=0;deletable=0;editable=0;locked=1;connectable=0;" parent="1" vertex="1">
          <mxGeometry x="1540" y="-805" width="140" height="20" as="geometry" />
        </mxCell>
        <mxCell id="xwbP8etTTOFJ-Utlb-hV-44" value="miopen-db.yml" style="rounded=0;html=1;labelBorderColor=none;labelBackgroundColor=none;fillColor=#FFB366;movable=0;resizable=0;rotatable=0;deletable=0;editable=0;locked=1;connectable=0;" parent="1" vertex="1">
          <mxGeometry x="1540" y="-775" width="140" height="20" as="geometry" />
        </mxCell>
        <mxCell id="xwbP8etTTOFJ-Utlb-hV-45" value="perf-test.yml" style="rounded=0;html=1;labelBorderColor=none;labelBackgroundColor=none;fillColor=#FFB366;movable=0;resizable=0;rotatable=0;deletable=0;editable=0;locked=1;connectable=0;" parent="1" vertex="1">
          <mxGeometry x="1540" y="-745" width="140" height="20" as="geometry" />
        </mxCell>
        <mxCell id="xwbP8etTTOFJ-Utlb-hV-46" value="rocm-release.yml" style="rounded=0;html=1;labelBorderColor=none;labelBackgroundColor=none;fillColor=#FFB366;movable=0;resizable=0;rotatable=0;deletable=0;editable=0;locked=1;connectable=0;" parent="1" vertex="1">
          <mxGeometry x="1540" y="-713.75" width="140" height="20" as="geometry" />
        </mxCell>
        <mxCell id="xwbP8etTTOFJ-Utlb-hV-47" value="" style="endArrow=classic;html=1;rounded=0;entryX=0;entryY=0.25;entryDx=0;entryDy=0;exitX=1;exitY=0.5;exitDx=0;exitDy=0;movable=0;resizable=0;rotatable=0;deletable=0;editable=0;locked=1;connectable=0;" parent="1" source="xwbP8etTTOFJ-Utlb-hV-38" target="xwbP8etTTOFJ-Utlb-hV-40" edge="1">
          <mxGeometry width="50" height="50" relative="1" as="geometry">
            <mxPoint x="1655" y="-737.5" as="sourcePoint" />
            <mxPoint x="1715" y="-777.5" as="targetPoint" />
          </mxGeometry>
        </mxCell>
        <mxCell id="xwbP8etTTOFJ-Utlb-hV-48" value="" style="endArrow=classic;html=1;rounded=0;entryX=0;entryY=0.5;entryDx=0;entryDy=0;exitX=1;exitY=0.5;exitDx=0;exitDy=0;movable=0;resizable=0;rotatable=0;deletable=0;editable=0;locked=1;connectable=0;" parent="1" source="xwbP8etTTOFJ-Utlb-hV-38" target="xwbP8etTTOFJ-Utlb-hV-46" edge="1">
          <mxGeometry width="50" height="50" relative="1" as="geometry">
            <mxPoint x="1655" y="-737.5" as="sourcePoint" />
            <mxPoint x="1705" y="-652.5" as="targetPoint" />
          </mxGeometry>
        </mxCell>
        <mxCell id="xwbP8etTTOFJ-Utlb-hV-49" value="" style="endArrow=classic;html=1;rounded=0;entryX=0;entryY=0.5;entryDx=0;entryDy=0;exitX=1;exitY=0.5;exitDx=0;exitDy=0;movable=0;resizable=0;rotatable=0;deletable=0;editable=0;locked=1;connectable=0;" parent="1" source="xwbP8etTTOFJ-Utlb-hV-38" target="xwbP8etTTOFJ-Utlb-hV-41" edge="1">
          <mxGeometry width="50" height="50" relative="1" as="geometry">
            <mxPoint x="1655" y="-737.5" as="sourcePoint" />
            <mxPoint x="1705" y="-777.5" as="targetPoint" />
          </mxGeometry>
        </mxCell>
        <mxCell id="xwbP8etTTOFJ-Utlb-hV-50" value="" style="endArrow=classic;html=1;rounded=0;entryX=0;entryY=0.5;entryDx=0;entryDy=0;exitX=1;exitY=0.5;exitDx=0;exitDy=0;movable=0;resizable=0;rotatable=0;deletable=0;editable=0;locked=1;connectable=0;" parent="1" source="xwbP8etTTOFJ-Utlb-hV-38" target="xwbP8etTTOFJ-Utlb-hV-44" edge="1">
          <mxGeometry width="50" height="50" relative="1" as="geometry">
            <mxPoint x="1655" y="-737.5" as="sourcePoint" />
            <mxPoint x="1695" y="-710" as="targetPoint" />
          </mxGeometry>
        </mxCell>
        <mxCell id="xwbP8etTTOFJ-Utlb-hV-51" value="" style="endArrow=classic;html=1;rounded=0;entryX=0;entryY=0.5;entryDx=0;entryDy=0;exitX=1;exitY=0.5;exitDx=0;exitDy=0;movable=0;resizable=0;rotatable=0;deletable=0;editable=0;locked=1;connectable=0;" parent="1" source="xwbP8etTTOFJ-Utlb-hV-38" target="xwbP8etTTOFJ-Utlb-hV-45" edge="1">
          <mxGeometry width="50" height="50" relative="1" as="geometry">
            <mxPoint x="1655" y="-737.5" as="sourcePoint" />
            <mxPoint x="1690" y="-702.5" as="targetPoint" />
            <Array as="points" />
          </mxGeometry>
        </mxCell>
        <mxCell id="xwbP8etTTOFJ-Utlb-hV-52" value="" style="endArrow=classic;html=1;rounded=0;entryX=0;entryY=0.5;entryDx=0;entryDy=0;exitX=1;exitY=0.5;exitDx=0;exitDy=0;movable=0;resizable=0;rotatable=0;deletable=0;editable=0;locked=1;connectable=0;" parent="1" source="xwbP8etTTOFJ-Utlb-hV-38" target="xwbP8etTTOFJ-Utlb-hV-43" edge="1">
          <mxGeometry width="50" height="50" relative="1" as="geometry">
            <mxPoint x="1655" y="-737.5" as="sourcePoint" />
            <mxPoint x="1695" y="-752.5" as="targetPoint" />
          </mxGeometry>
        </mxCell>
        <mxCell id="xwbP8etTTOFJ-Utlb-hV-53" value="" style="endArrow=classic;html=1;rounded=0;entryX=0;entryY=0.5;entryDx=0;entryDy=0;exitX=1;exitY=0.5;exitDx=0;exitDy=0;movable=0;resizable=0;rotatable=0;deletable=0;editable=0;locked=1;connectable=0;" parent="1" source="xwbP8etTTOFJ-Utlb-hV-7" target="xwbP8etTTOFJ-Utlb-hV-38" edge="1">
          <mxGeometry width="50" height="50" relative="1" as="geometry">
            <mxPoint x="1080" y="-756" as="sourcePoint" />
            <mxPoint x="1110" y="-755" as="targetPoint" />
          </mxGeometry>
        </mxCell>
        <mxCell id="xwbP8etTTOFJ-Utlb-hV-54" value="github action workflows" style="rounded=0;html=1;labelBorderColor=none;labelBackgroundColor=none;fillColor=#FF9933;direction=west;movable=0;resizable=0;rotatable=0;deletable=0;editable=0;locked=1;connectable=0;" parent="1" vertex="1">
          <mxGeometry x="350" y="-857.5" width="130" height="20" as="geometry" />
        </mxCell>
        <mxCell id="xwbP8etTTOFJ-Utlb-hV-56" value="benchmarks.yml" style="rounded=0;html=1;labelBorderColor=none;labelBackgroundColor=none;fillColor=#FF9933;direction=west;movable=0;resizable=0;rotatable=0;deletable=0;editable=0;locked=1;connectable=0;" parent="1" vertex="1">
          <mxGeometry x="95" y="-918.75" width="120" height="20" as="geometry" />
        </mxCell>
        <mxCell id="xwbP8etTTOFJ-Utlb-hV-57" value="history.yml" style="rounded=0;html=1;labelBorderColor=none;labelBackgroundColor=none;fillColor=#FF9933;direction=west;movable=0;resizable=0;rotatable=0;deletable=0;editable=0;locked=1;connectable=0;" parent="1" vertex="1">
          <mxGeometry x="95" y="-888.75" width="120" height="20" as="geometry" />
        </mxCell>
        <mxCell id="xwbP8etTTOFJ-Utlb-hV-58" value="miopen-db.yml" style="rounded=0;html=1;labelBorderColor=none;labelBackgroundColor=none;fillColor=#FF9933;direction=west;movable=0;resizable=0;rotatable=0;deletable=0;editable=0;locked=1;connectable=0;" parent="1" vertex="1">
          <mxGeometry x="95" y="-858.75" width="120" height="20" as="geometry" />
        </mxCell>
        <mxCell id="xwbP8etTTOFJ-Utlb-hV-59" value="perf-test.yml" style="rounded=0;html=1;labelBorderColor=none;labelBackgroundColor=none;fillColor=#FF9933;direction=west;movable=0;resizable=0;rotatable=0;deletable=0;editable=0;locked=1;connectable=0;" parent="1" vertex="1">
          <mxGeometry x="95" y="-828.75" width="120" height="20" as="geometry" />
        </mxCell>
        <mxCell id="xwbP8etTTOFJ-Utlb-hV-60" value="rocm-release.yml" style="rounded=0;html=1;labelBorderColor=none;labelBackgroundColor=none;fillColor=#FF9933;direction=west;movable=0;resizable=0;rotatable=0;deletable=0;editable=0;locked=1;connectable=0;" parent="1" vertex="1">
          <mxGeometry x="95" y="-798.75" width="120" height="20" as="geometry" />
        </mxCell>
        <mxCell id="xwbP8etTTOFJ-Utlb-hV-62" value="" style="endArrow=classic;html=1;rounded=0;entryX=0;entryY=0.5;entryDx=0;entryDy=0;exitX=1;exitY=0.5;exitDx=0;exitDy=0;movable=0;resizable=0;rotatable=0;deletable=0;editable=0;locked=1;connectable=0;" parent="1" source="xwbP8etTTOFJ-Utlb-hV-54" target="xwbP8etTTOFJ-Utlb-hV-60" edge="1">
          <mxGeometry width="50" height="50" relative="1" as="geometry">
            <mxPoint x="125" y="-867.5" as="sourcePoint" />
            <mxPoint x="165" y="-792.5" as="targetPoint" />
          </mxGeometry>
        </mxCell>
        <mxCell id="xwbP8etTTOFJ-Utlb-hV-63" value="" style="endArrow=classic;html=1;rounded=0;exitX=1;exitY=0.5;exitDx=0;exitDy=0;entryX=0;entryY=0.5;entryDx=0;entryDy=0;movable=0;resizable=0;rotatable=0;deletable=0;editable=0;locked=1;connectable=0;" parent="1" source="xwbP8etTTOFJ-Utlb-hV-54" target="xwbP8etTTOFJ-Utlb-hV-56" edge="1">
          <mxGeometry width="50" height="50" relative="1" as="geometry">
            <mxPoint x="125" y="-867.5" as="sourcePoint" />
            <mxPoint x="165" y="-917.5" as="targetPoint" />
          </mxGeometry>
        </mxCell>
        <mxCell id="xwbP8etTTOFJ-Utlb-hV-64" value="" style="endArrow=classic;html=1;rounded=0;entryX=0;entryY=0.5;entryDx=0;entryDy=0;exitX=1;exitY=0.5;exitDx=0;exitDy=0;movable=0;resizable=0;rotatable=0;deletable=0;editable=0;locked=1;connectable=0;" parent="1" source="xwbP8etTTOFJ-Utlb-hV-54" target="xwbP8etTTOFJ-Utlb-hV-58" edge="1">
          <mxGeometry width="50" height="50" relative="1" as="geometry">
            <mxPoint x="335" y="-872.5" as="sourcePoint" />
            <mxPoint x="305" y="-872.5" as="targetPoint" />
          </mxGeometry>
        </mxCell>
        <mxCell id="xwbP8etTTOFJ-Utlb-hV-65" value="" style="endArrow=classic;html=1;rounded=0;entryX=0;entryY=0.5;entryDx=0;entryDy=0;exitX=1;exitY=0.5;exitDx=0;exitDy=0;movable=0;resizable=0;rotatable=0;deletable=0;editable=0;locked=1;connectable=0;" parent="1" source="xwbP8etTTOFJ-Utlb-hV-54" target="xwbP8etTTOFJ-Utlb-hV-59" edge="1">
          <mxGeometry width="50" height="50" relative="1" as="geometry">
            <mxPoint x="335" y="-872.5" as="sourcePoint" />
            <mxPoint x="305" y="-852.5" as="targetPoint" />
            <Array as="points" />
          </mxGeometry>
        </mxCell>
        <mxCell id="xwbP8etTTOFJ-Utlb-hV-66" value="" style="endArrow=classic;html=1;rounded=0;entryX=0;entryY=0.5;entryDx=0;entryDy=0;exitX=1;exitY=0.5;exitDx=0;exitDy=0;movable=0;resizable=0;rotatable=0;deletable=0;editable=0;locked=1;connectable=0;" parent="1" source="xwbP8etTTOFJ-Utlb-hV-54" target="xwbP8etTTOFJ-Utlb-hV-57" edge="1">
          <mxGeometry width="50" height="50" relative="1" as="geometry">
            <mxPoint x="125" y="-867.5" as="sourcePoint" />
            <mxPoint x="155" y="-892.5" as="targetPoint" />
          </mxGeometry>
        </mxCell>
        <mxCell id="xwbP8etTTOFJ-Utlb-hV-67" value="" style="endArrow=classic;html=1;rounded=0;entryX=0;entryY=0.5;entryDx=0;entryDy=0;exitX=0;exitY=0.5;exitDx=0;exitDy=0;movable=0;resizable=0;rotatable=0;deletable=0;editable=0;locked=1;connectable=0;" parent="1" source="xwbP8etTTOFJ-Utlb-hV-18" target="xwbP8etTTOFJ-Utlb-hV-54" edge="1">
          <mxGeometry width="50" height="50" relative="1" as="geometry">
            <mxPoint x="230" y="-795.5" as="sourcePoint" />
            <mxPoint x="200" y="-795" as="targetPoint" />
          </mxGeometry>
        </mxCell>
        <mxCell id="gxmgwyy8D1BKnNXjqqN9-1" value="benchmark-utils" style="rounded=0;html=1;labelBorderColor=none;labelBackgroundColor=#00FFFF;fillColor=#00FFFF;movable=0;resizable=0;rotatable=0;deletable=0;editable=0;locked=1;connectable=0;" parent="1" vertex="1">
          <mxGeometry x="960" y="-800" width="120" height="60" as="geometry" />
        </mxCell>
        <mxCell id="gxmgwyy8D1BKnNXjqqN9-2" value="migraphx-benchmark-utils" style="rounded=0;whiteSpace=wrap;html=1;labelBackgroundColor=#2CFF14;labelBorderColor=#2CFF14;fillColor=#2CFF14;movable=0;resizable=0;rotatable=0;deletable=0;editable=0;locked=1;connectable=0;" parent="1" vertex="1">
          <mxGeometry x="670" y="-800" width="120" height="60" as="geometry" />
        </mxCell>
        <mxCell id="gxmgwyy8D1BKnNXjqqN9-3" value="" style="endArrow=classic;startArrow=classic;html=1;rounded=0;exitX=1;exitY=0.5;exitDx=0;exitDy=0;entryX=0;entryY=0.5;entryDx=0;entryDy=0;strokeWidth=3;movable=0;resizable=0;rotatable=0;deletable=0;editable=0;locked=1;connectable=0;" parent="1" source="gxmgwyy8D1BKnNXjqqN9-2" target="gxmgwyy8D1BKnNXjqqN9-1" edge="1">
          <mxGeometry width="50" height="50" relative="1" as="geometry">
            <mxPoint x="540" y="-555" as="sourcePoint" />
            <mxPoint x="590" y="-545" as="targetPoint" />
          </mxGeometry>
        </mxCell>
        <mxCell id="gxmgwyy8D1BKnNXjqqN9-4" value="github action workflows" style="rounded=0;html=1;labelBorderColor=none;labelBackgroundColor=none;fillColor=#FF9933;movable=0;resizable=0;rotatable=0;deletable=0;editable=0;locked=1;connectable=0;" parent="1" vertex="1">
          <mxGeometry x="1275" y="-645" width="130" height="20" as="geometry" />
        </mxCell>
        <mxCell id="gxmgwyy8D1BKnNXjqqN9-5" value="rocm-imgBuild-onPush-HTEC.yml" style="rounded=0;html=1;labelBorderColor=none;labelBackgroundColor=none;fillColor=#FFB366;movable=0;resizable=0;rotatable=0;deletable=0;editable=0;locked=1;connectable=0;" parent="1" vertex="1">
          <mxGeometry x="1540" y="-645" width="200" height="20" as="geometry" />
        </mxCell>
        <mxCell id="gxmgwyy8D1BKnNXjqqN9-11" value="" style="endArrow=classic;html=1;rounded=0;exitX=1;exitY=0.5;exitDx=0;exitDy=0;entryX=0;entryY=0.5;entryDx=0;entryDy=0;movable=0;resizable=0;rotatable=0;deletable=0;editable=0;locked=1;connectable=0;" parent="1" source="gxmgwyy8D1BKnNXjqqN9-4" target="gxmgwyy8D1BKnNXjqqN9-5" edge="1">
          <mxGeometry width="50" height="50" relative="1" as="geometry">
            <mxPoint x="1415" y="-585" as="sourcePoint" />
            <mxPoint x="1435" y="-610" as="targetPoint" />
          </mxGeometry>
        </mxCell>
        <mxCell id="gxmgwyy8D1BKnNXjqqN9-17" value="" style="endArrow=classic;html=1;rounded=0;entryX=0;entryY=0.5;entryDx=0;entryDy=0;exitX=1;exitY=0.5;exitDx=0;exitDy=0;movable=0;resizable=0;rotatable=0;deletable=0;editable=0;locked=1;connectable=0;" parent="1" source="gxmgwyy8D1BKnNXjqqN9-1" target="gxmgwyy8D1BKnNXjqqN9-4" edge="1">
          <mxGeometry width="50" height="50" relative="1" as="geometry">
            <mxPoint x="1100" y="-385" as="sourcePoint" />
            <mxPoint x="1140" y="-495" as="targetPoint" />
          </mxGeometry>
        </mxCell>
        <mxCell id="gxmgwyy8D1BKnNXjqqN9-29" value="" style="endArrow=classic;html=1;rounded=0;exitX=0;exitY=0.5;exitDx=0;exitDy=0;entryX=0;entryY=0.5;entryDx=0;entryDy=0;movable=0;resizable=0;rotatable=0;deletable=0;editable=0;locked=1;connectable=0;" parent="1" source="gxmgwyy8D1BKnNXjqqN9-2" target="gxmgwyy8D1BKnNXjqqN9-222" edge="1">
          <mxGeometry width="50" height="50" relative="1" as="geometry">
            <mxPoint x="230" y="-793" as="sourcePoint" />
            <mxPoint x="250" y="-660" as="targetPoint" />
          </mxGeometry>
        </mxCell>
        <mxCell id="gxmgwyy8D1BKnNXjqqN9-30" value="scripts" style="rounded=0;html=1;labelBorderColor=none;labelBackgroundColor=none;fillColor=#FFFF33;movable=0;resizable=0;rotatable=0;deletable=0;editable=0;locked=1;connectable=0;" parent="1" vertex="1">
          <mxGeometry x="1275" y="-10" width="130" height="20" as="geometry" />
        </mxCell>
        <mxCell id="gxmgwyy8D1BKnNXjqqN9-31" value="accuracy_tests.sh" style="rounded=0;html=1;labelBorderColor=none;labelBackgroundColor=none;fillColor=#FFFFCC;movable=0;resizable=0;rotatable=0;deletable=0;editable=0;locked=1;connectable=0;" parent="1" vertex="1">
          <mxGeometry x="1540" y="-230" width="180" height="20" as="geometry" />
        </mxCell>
        <mxCell id="gxmgwyy8D1BKnNXjqqN9-32" value="benchmark_report_detail.py" style="rounded=0;html=1;labelBorderColor=none;labelBackgroundColor=none;fillColor=#FFFFCC;movable=0;resizable=0;rotatable=0;deletable=0;editable=0;locked=1;connectable=0;" parent="1" vertex="1">
          <mxGeometry x="1540" y="-200" width="180" height="20" as="geometry" />
        </mxCell>
        <mxCell id="gxmgwyy8D1BKnNXjqqN9-33" value="build_migraphx.sh" style="rounded=0;html=1;labelBorderColor=none;labelBackgroundColor=none;fillColor=#FFFFCC;movable=0;resizable=0;rotatable=0;deletable=0;editable=0;locked=1;connectable=0;" parent="1" vertex="1">
          <mxGeometry x="1540" y="-170" width="180" height="20" as="geometry" />
        </mxCell>
        <mxCell id="gxmgwyy8D1BKnNXjqqN9-34" value="build_migraphx_cpu.sh" style="rounded=0;html=1;labelBorderColor=none;labelBackgroundColor=none;fillColor=#FFFFCC;movable=0;resizable=0;rotatable=0;deletable=0;editable=0;locked=1;connectable=0;" parent="1" vertex="1">
          <mxGeometry x="1540" y="-140" width="180" height="20" as="geometry" />
        </mxCell>
        <mxCell id="gxmgwyy8D1BKnNXjqqN9-35" value="build_migraphx_docker.sh" style="rounded=0;html=1;labelBorderColor=none;labelBackgroundColor=none;fillColor=#FFFFCC;movable=0;resizable=0;rotatable=0;deletable=0;editable=0;locked=1;connectable=0;" parent="1" vertex="1">
          <mxGeometry x="1540" y="-110" width="180" height="20" as="geometry" />
        </mxCell>
        <mxCell id="gxmgwyy8D1BKnNXjqqN9-36" value="build_migraphx_docker_latest.sh" style="rounded=0;html=1;labelBorderColor=none;labelBackgroundColor=none;fillColor=#FFFFCC;movable=0;resizable=0;rotatable=0;deletable=0;editable=0;locked=1;connectable=0;" parent="1" vertex="1">
          <mxGeometry x="1540" y="-80" width="180" height="20" as="geometry" />
        </mxCell>
        <mxCell id="gxmgwyy8D1BKnNXjqqN9-37" value="" style="endArrow=classic;html=1;rounded=0;entryX=0;entryY=0.25;entryDx=0;entryDy=0;exitX=1;exitY=0.5;exitDx=0;exitDy=0;movable=0;resizable=0;rotatable=0;deletable=0;editable=0;locked=1;connectable=0;" parent="1" source="gxmgwyy8D1BKnNXjqqN9-30" target="gxmgwyy8D1BKnNXjqqN9-31" edge="1">
          <mxGeometry width="50" height="50" relative="1" as="geometry">
            <mxPoint x="1385" y="345" as="sourcePoint" />
            <mxPoint x="1435" y="295" as="targetPoint" />
          </mxGeometry>
        </mxCell>
        <mxCell id="gxmgwyy8D1BKnNXjqqN9-38" value="" style="endArrow=classic;html=1;rounded=0;entryX=0;entryY=0.5;entryDx=0;entryDy=0;exitX=1;exitY=0.5;exitDx=0;exitDy=0;movable=0;resizable=0;rotatable=0;deletable=0;editable=0;locked=1;connectable=0;" parent="1" source="gxmgwyy8D1BKnNXjqqN9-30" target="gxmgwyy8D1BKnNXjqqN9-36" edge="1">
          <mxGeometry width="50" height="50" relative="1" as="geometry">
            <mxPoint x="1385" y="370" as="sourcePoint" />
            <mxPoint x="1425" y="445" as="targetPoint" />
          </mxGeometry>
        </mxCell>
        <mxCell id="gxmgwyy8D1BKnNXjqqN9-39" value="" style="endArrow=classic;html=1;rounded=0;entryX=0;entryY=0.5;entryDx=0;entryDy=0;exitX=1;exitY=0.5;exitDx=0;exitDy=0;movable=0;resizable=0;rotatable=0;deletable=0;editable=0;locked=1;connectable=0;" parent="1" source="gxmgwyy8D1BKnNXjqqN9-30" target="gxmgwyy8D1BKnNXjqqN9-32" edge="1">
          <mxGeometry width="50" height="50" relative="1" as="geometry">
            <mxPoint x="1385" y="370" as="sourcePoint" />
            <mxPoint x="1425" y="320" as="targetPoint" />
          </mxGeometry>
        </mxCell>
        <mxCell id="gxmgwyy8D1BKnNXjqqN9-40" value="" style="endArrow=classic;html=1;rounded=0;entryX=0;entryY=0.5;entryDx=0;entryDy=0;exitX=1;exitY=0.5;exitDx=0;exitDy=0;movable=0;resizable=0;rotatable=0;deletable=0;editable=0;locked=1;connectable=0;" parent="1" source="gxmgwyy8D1BKnNXjqqN9-30" target="gxmgwyy8D1BKnNXjqqN9-34" edge="1">
          <mxGeometry width="50" height="50" relative="1" as="geometry">
            <mxPoint x="1385" y="370" as="sourcePoint" />
            <mxPoint x="1415" y="387.5" as="targetPoint" />
          </mxGeometry>
        </mxCell>
        <mxCell id="gxmgwyy8D1BKnNXjqqN9-41" value="" style="endArrow=classic;html=1;rounded=0;entryX=0;entryY=0.5;entryDx=0;entryDy=0;exitX=1;exitY=0.5;exitDx=0;exitDy=0;movable=0;resizable=0;rotatable=0;deletable=0;editable=0;locked=1;connectable=0;" parent="1" source="gxmgwyy8D1BKnNXjqqN9-30" target="gxmgwyy8D1BKnNXjqqN9-35" edge="1">
          <mxGeometry width="50" height="50" relative="1" as="geometry">
            <mxPoint x="1385" y="370" as="sourcePoint" />
            <mxPoint x="1410" y="395" as="targetPoint" />
            <Array as="points" />
          </mxGeometry>
        </mxCell>
        <mxCell id="gxmgwyy8D1BKnNXjqqN9-42" value="" style="endArrow=classic;html=1;rounded=0;entryX=0;entryY=0.5;entryDx=0;entryDy=0;exitX=1;exitY=0.5;exitDx=0;exitDy=0;movable=0;resizable=0;rotatable=0;deletable=0;editable=0;locked=1;connectable=0;" parent="1" source="gxmgwyy8D1BKnNXjqqN9-30" target="gxmgwyy8D1BKnNXjqqN9-33" edge="1">
          <mxGeometry width="50" height="50" relative="1" as="geometry">
            <mxPoint x="1365" y="370" as="sourcePoint" />
            <mxPoint x="1415" y="345" as="targetPoint" />
          </mxGeometry>
        </mxCell>
        <mxCell id="gxmgwyy8D1BKnNXjqqN9-43" value="" style="endArrow=classic;html=1;rounded=0;exitX=1;exitY=0.5;exitDx=0;exitDy=0;entryX=0;entryY=0.5;entryDx=0;entryDy=0;movable=0;resizable=0;rotatable=0;deletable=0;editable=0;locked=1;connectable=0;" parent="1" source="gxmgwyy8D1BKnNXjqqN9-1" target="gxmgwyy8D1BKnNXjqqN9-30" edge="1">
          <mxGeometry width="50" height="50" relative="1" as="geometry">
            <mxPoint x="1100" y="-385" as="sourcePoint" />
            <mxPoint x="980" y="-250" as="targetPoint" />
          </mxGeometry>
        </mxCell>
        <mxCell id="gxmgwyy8D1BKnNXjqqN9-44" value="dockerfiles" style="rounded=0;html=1;labelBorderColor=none;labelBackgroundColor=none;fillColor=#007FFF;movable=0;resizable=0;rotatable=0;deletable=0;editable=0;locked=1;connectable=0;" parent="1" vertex="1">
          <mxGeometry x="1275" y="-520" width="130" height="20" as="geometry" />
        </mxCell>
        <mxCell id="gxmgwyy8D1BKnNXjqqN9-45" value="patch" style="rounded=0;html=1;labelBorderColor=none;labelBackgroundColor=none;fillColor=#99CCFF;movable=0;resizable=0;rotatable=0;deletable=0;editable=0;locked=1;connectable=0;" parent="1" vertex="1">
          <mxGeometry x="1540" y="-571.25" width="120" height="20" as="geometry" />
        </mxCell>
        <mxCell id="gxmgwyy8D1BKnNXjqqN9-46" value="Daily.Dockerfile" style="rounded=0;html=1;labelBorderColor=none;labelBackgroundColor=none;fillColor=#99CCFF;movable=0;resizable=0;rotatable=0;deletable=0;editable=0;locked=1;connectable=0;" parent="1" vertex="1">
          <mxGeometry x="1540" y="-541.25" width="120" height="20" as="geometry" />
        </mxCell>
        <mxCell id="gxmgwyy8D1BKnNXjqqN9-47" value="Dockerfile" style="rounded=0;html=1;labelBorderColor=none;labelBackgroundColor=none;fillColor=#99CCFF;movable=0;resizable=0;rotatable=0;deletable=0;editable=0;locked=1;connectable=0;" parent="1" vertex="1">
          <mxGeometry x="1540" y="-511.25" width="120" height="20" as="geometry" />
        </mxCell>
        <mxCell id="gxmgwyy8D1BKnNXjqqN9-48" value="Ort.Dockerfile" style="rounded=0;html=1;labelBorderColor=none;labelBackgroundColor=none;fillColor=#99CCFF;movable=0;resizable=0;rotatable=0;deletable=0;editable=0;locked=1;connectable=0;" parent="1" vertex="1">
          <mxGeometry x="1540" y="-481.25" width="120" height="20" as="geometry" />
        </mxCell>
        <mxCell id="gxmgwyy8D1BKnNXjqqN9-51" value="" style="endArrow=classic;html=1;rounded=0;entryX=0;entryY=0.25;entryDx=0;entryDy=0;exitX=1;exitY=0.5;exitDx=0;exitDy=0;movable=0;resizable=0;rotatable=0;deletable=0;editable=0;locked=1;connectable=0;" parent="1" source="gxmgwyy8D1BKnNXjqqN9-44" target="gxmgwyy8D1BKnNXjqqN9-45" edge="1">
          <mxGeometry width="50" height="50" relative="1" as="geometry">
            <mxPoint x="1415" y="-450" as="sourcePoint" />
            <mxPoint x="1465" y="-500" as="targetPoint" />
          </mxGeometry>
        </mxCell>
        <mxCell id="gxmgwyy8D1BKnNXjqqN9-53" value="" style="endArrow=classic;html=1;rounded=0;entryX=0;entryY=0.5;entryDx=0;entryDy=0;exitX=1;exitY=0.5;exitDx=0;exitDy=0;movable=0;resizable=0;rotatable=0;deletable=0;editable=0;locked=1;connectable=0;" parent="1" source="gxmgwyy8D1BKnNXjqqN9-44" target="gxmgwyy8D1BKnNXjqqN9-46" edge="1">
          <mxGeometry width="50" height="50" relative="1" as="geometry">
            <mxPoint x="1415" y="-450" as="sourcePoint" />
            <mxPoint x="1455" y="-500" as="targetPoint" />
          </mxGeometry>
        </mxCell>
        <mxCell id="gxmgwyy8D1BKnNXjqqN9-54" value="" style="endArrow=classic;html=1;rounded=0;entryX=0;entryY=0.5;entryDx=0;entryDy=0;exitX=1;exitY=0.5;exitDx=0;exitDy=0;movable=0;resizable=0;rotatable=0;deletable=0;editable=0;locked=1;connectable=0;" parent="1" source="gxmgwyy8D1BKnNXjqqN9-44" target="gxmgwyy8D1BKnNXjqqN9-48" edge="1">
          <mxGeometry width="50" height="50" relative="1" as="geometry">
            <mxPoint x="1415" y="-450" as="sourcePoint" />
            <mxPoint x="1445" y="-432.5" as="targetPoint" />
          </mxGeometry>
        </mxCell>
        <mxCell id="gxmgwyy8D1BKnNXjqqN9-56" value="" style="endArrow=classic;html=1;rounded=0;entryX=0;entryY=0.5;entryDx=0;entryDy=0;exitX=1;exitY=0.5;exitDx=0;exitDy=0;movable=0;resizable=0;rotatable=0;deletable=0;editable=0;locked=1;connectable=0;" parent="1" source="gxmgwyy8D1BKnNXjqqN9-44" target="gxmgwyy8D1BKnNXjqqN9-47" edge="1">
          <mxGeometry width="50" height="50" relative="1" as="geometry">
            <mxPoint x="1395" y="-450" as="sourcePoint" />
            <mxPoint x="1445" y="-475" as="targetPoint" />
          </mxGeometry>
        </mxCell>
        <mxCell id="gxmgwyy8D1BKnNXjqqN9-57" value="" style="endArrow=classic;html=1;rounded=0;exitX=1;exitY=0.5;exitDx=0;exitDy=0;entryX=0;entryY=0.5;entryDx=0;entryDy=0;movable=0;resizable=0;rotatable=0;deletable=0;editable=0;locked=1;connectable=0;" parent="1" source="gxmgwyy8D1BKnNXjqqN9-1" target="gxmgwyy8D1BKnNXjqqN9-44" edge="1">
          <mxGeometry width="50" height="50" relative="1" as="geometry">
            <mxPoint x="1100" y="-385" as="sourcePoint" />
            <mxPoint x="1150" y="-340" as="targetPoint" />
          </mxGeometry>
        </mxCell>
        <mxCell id="gxmgwyy8D1BKnNXjqqN9-61" value="" style="endArrow=classic;html=1;rounded=0;exitX=1;exitY=0.5;exitDx=0;exitDy=0;entryX=0;entryY=0.5;entryDx=0;entryDy=0;movable=0;resizable=0;rotatable=0;deletable=0;editable=0;locked=1;connectable=0;" parent="1" source="gxmgwyy8D1BKnNXjqqN9-1" target="gxmgwyy8D1BKnNXjqqN9-110" edge="1">
          <mxGeometry width="50" height="50" relative="1" as="geometry">
            <mxPoint x="1100" y="-385" as="sourcePoint" />
            <mxPoint x="1129.9999999999998" y="-265" as="targetPoint" />
          </mxGeometry>
        </mxCell>
        <mxCell id="gxmgwyy8D1BKnNXjqqN9-62" value="" style="endArrow=classic;html=1;rounded=0;exitX=1;exitY=0.5;exitDx=0;exitDy=0;entryX=0;entryY=0.5;entryDx=0;entryDy=0;movable=0;resizable=0;rotatable=0;deletable=0;editable=0;locked=1;connectable=0;" parent="1" source="gxmgwyy8D1BKnNXjqqN9-1" target="gxmgwyy8D1BKnNXjqqN9-63" edge="1">
          <mxGeometry width="50" height="50" relative="1" as="geometry">
            <mxPoint x="1100" y="-385" as="sourcePoint" />
            <mxPoint x="1140" y="200" as="targetPoint" />
          </mxGeometry>
        </mxCell>
        <mxCell id="gxmgwyy8D1BKnNXjqqN9-63" value="tools" style="rounded=0;html=1;labelBorderColor=none;labelBackgroundColor=none;fillColor=#E6E6E6;movable=0;resizable=0;rotatable=0;deletable=0;editable=0;locked=1;connectable=0;" parent="1" vertex="1">
          <mxGeometry x="1275" y="335" width="50" height="20" as="geometry" />
        </mxCell>
        <mxCell id="gxmgwyy8D1BKnNXjqqN9-67" value="" style="endArrow=classic;html=1;rounded=0;exitX=1;exitY=0.5;exitDx=0;exitDy=0;entryX=0;entryY=0.5;entryDx=0;entryDy=0;movable=0;resizable=0;rotatable=0;deletable=0;editable=0;locked=1;connectable=0;" parent="1" source="gxmgwyy8D1BKnNXjqqN9-45" target="gxmgwyy8D1BKnNXjqqN9-68" edge="1">
          <mxGeometry width="50" height="50" relative="1" as="geometry">
            <mxPoint x="1770" y="-521.25" as="sourcePoint" />
            <mxPoint x="1730" y="-511.25" as="targetPoint" />
          </mxGeometry>
        </mxCell>
        <mxCell id="gxmgwyy8D1BKnNXjqqN9-68" value="half" style="rounded=0;html=1;labelBorderColor=none;labelBackgroundColor=none;fillColor=#99CCFF;movable=0;resizable=0;rotatable=0;deletable=0;editable=0;locked=1;connectable=0;" parent="1" vertex="1">
          <mxGeometry x="1790" y="-588.75" width="120" height="20" as="geometry" />
        </mxCell>
        <mxCell id="gxmgwyy8D1BKnNXjqqN9-69" value="" style="endArrow=classic;html=1;rounded=0;exitX=1;exitY=0.5;exitDx=0;exitDy=0;entryX=0;entryY=0.5;entryDx=0;entryDy=0;movable=0;resizable=0;rotatable=0;deletable=0;editable=0;locked=1;connectable=0;" parent="1" source="gxmgwyy8D1BKnNXjqqN9-45" target="gxmgwyy8D1BKnNXjqqN9-72" edge="1">
          <mxGeometry width="50" height="50" relative="1" as="geometry">
            <mxPoint x="1760" y="-461.25" as="sourcePoint" />
            <mxPoint x="1770" y="-521.25" as="targetPoint" />
          </mxGeometry>
        </mxCell>
        <mxCell id="gxmgwyy8D1BKnNXjqqN9-70" value="" style="endArrow=classic;html=1;rounded=0;exitX=1;exitY=0.5;exitDx=0;exitDy=0;entryX=0;entryY=0.5;entryDx=0;entryDy=0;movable=0;resizable=0;rotatable=0;deletable=0;editable=0;locked=1;connectable=0;" parent="1" source="gxmgwyy8D1BKnNXjqqN9-45" target="gxmgwyy8D1BKnNXjqqN9-73" edge="1">
          <mxGeometry width="50" height="50" relative="1" as="geometry">
            <mxPoint x="1690" y="-501.25" as="sourcePoint" />
            <mxPoint x="1780" y="-481.25" as="targetPoint" />
          </mxGeometry>
        </mxCell>
        <mxCell id="gxmgwyy8D1BKnNXjqqN9-71" value="" style="endArrow=classic;html=1;rounded=0;exitX=1;exitY=0.5;exitDx=0;exitDy=0;entryX=0;entryY=0.5;entryDx=0;entryDy=0;movable=0;resizable=0;rotatable=0;deletable=0;editable=0;locked=1;connectable=0;" parent="1" source="gxmgwyy8D1BKnNXjqqN9-45" target="gxmgwyy8D1BKnNXjqqN9-74" edge="1">
          <mxGeometry width="50" height="50" relative="1" as="geometry">
            <mxPoint x="1700" y="-491.25" as="sourcePoint" />
            <mxPoint x="1750" y="-441.25" as="targetPoint" />
          </mxGeometry>
        </mxCell>
        <mxCell id="gxmgwyy8D1BKnNXjqqN9-72" value="half.hpp" style="rounded=0;html=1;labelBorderColor=none;labelBackgroundColor=none;fillColor=#99CCFF;movable=0;resizable=0;rotatable=0;deletable=0;editable=0;locked=1;connectable=0;" parent="1" vertex="1">
          <mxGeometry x="1790" y="-563.75" width="120" height="20" as="geometry" />
        </mxCell>
        <mxCell id="gxmgwyy8D1BKnNXjqqN9-73" value="patch.disable_migraphx_doc" style="rounded=0;html=1;labelBorderColor=none;labelBackgroundColor=none;fillColor=#99CCFF;movable=0;resizable=0;rotatable=0;deletable=0;editable=0;locked=1;connectable=0;" parent="1" vertex="1">
          <mxGeometry x="1790" y="-538.75" width="175" height="20" as="geometry" />
        </mxCell>
        <mxCell id="gxmgwyy8D1BKnNXjqqN9-74" value="patch.enable_gfx1030" style="rounded=0;html=1;labelBorderColor=none;labelBackgroundColor=none;fillColor=#99CCFF;movable=0;resizable=0;rotatable=0;deletable=0;editable=0;locked=1;connectable=0;" parent="1" vertex="1">
          <mxGeometry x="1790" y="-513.75" width="175" height="20" as="geometry" />
        </mxCell>
        <mxCell id="gxmgwyy8D1BKnNXjqqN9-75" value="half.hpp" style="rounded=0;html=1;labelBorderColor=none;labelBackgroundColor=none;fillColor=#99CCFF;movable=0;resizable=0;rotatable=0;deletable=0;editable=0;locked=1;connectable=0;" parent="1" vertex="1">
          <mxGeometry x="1980" y="-588.75" width="120" height="20" as="geometry" />
        </mxCell>
        <mxCell id="gxmgwyy8D1BKnNXjqqN9-76" value="" style="endArrow=classic;html=1;rounded=0;exitX=1;exitY=0.5;exitDx=0;exitDy=0;entryX=0;entryY=0.5;entryDx=0;entryDy=0;movable=0;resizable=0;rotatable=0;deletable=0;editable=0;locked=1;connectable=0;" parent="1" source="gxmgwyy8D1BKnNXjqqN9-68" target="gxmgwyy8D1BKnNXjqqN9-75" edge="1">
          <mxGeometry width="50" height="50" relative="1" as="geometry">
            <mxPoint x="1910" y="-408.75" as="sourcePoint" />
            <mxPoint x="1980" y="-578.75" as="targetPoint" />
          </mxGeometry>
        </mxCell>
        <mxCell id="gxmgwyy8D1BKnNXjqqN9-79" value="build_prereqs.sh" style="rounded=0;html=1;labelBorderColor=none;labelBackgroundColor=none;fillColor=#FFFFCC;movable=0;resizable=0;rotatable=0;deletable=0;editable=0;locked=1;connectable=0;" parent="1" vertex="1">
          <mxGeometry x="1540" y="-50" width="180" height="20" as="geometry" />
        </mxCell>
        <mxCell id="gxmgwyy8D1BKnNXjqqN9-80" value="clean_after_pr.sh" style="rounded=0;html=1;labelBorderColor=none;labelBackgroundColor=none;fillColor=#FFFFCC;movable=0;resizable=0;rotatable=0;deletable=0;editable=0;locked=1;connectable=0;" parent="1" vertex="1">
          <mxGeometry x="1540" y="-20" width="180" height="20" as="geometry" />
        </mxCell>
        <mxCell id="gxmgwyy8D1BKnNXjqqN9-81" value="comment.py" style="rounded=0;html=1;labelBorderColor=none;labelBackgroundColor=none;fillColor=#FFFFCC;movable=0;resizable=0;rotatable=0;deletable=0;editable=0;locked=1;connectable=0;" parent="1" vertex="1">
          <mxGeometry x="1540" y="10" width="180" height="20" as="geometry" />
        </mxCell>
        <mxCell id="gxmgwyy8D1BKnNXjqqN9-82" value="compare.sh" style="rounded=0;html=1;labelBorderColor=none;labelBackgroundColor=none;fillColor=#FFFFCC;movable=0;resizable=0;rotatable=0;deletable=0;editable=0;locked=1;connectable=0;" parent="1" vertex="1">
          <mxGeometry x="1540" y="40" width="180" height="20" as="geometry" />
        </mxCell>
        <mxCell id="gxmgwyy8D1BKnNXjqqN9-83" value="history.py" style="rounded=0;html=1;labelBorderColor=none;labelBackgroundColor=none;fillColor=#FFFFCC;movable=0;resizable=0;rotatable=0;deletable=0;editable=0;locked=1;connectable=0;" parent="1" vertex="1">
          <mxGeometry x="1540" y="70" width="180" height="20" as="geometry" />
        </mxCell>
        <mxCell id="gxmgwyy8D1BKnNXjqqN9-84" value="ort_benchmark.sh" style="rounded=0;html=1;labelBorderColor=none;labelBackgroundColor=none;fillColor=#FFFFCC;movable=0;resizable=0;rotatable=0;deletable=0;editable=0;locked=1;connectable=0;" parent="1" vertex="1">
          <mxGeometry x="1540" y="100" width="180" height="20" as="geometry" />
        </mxCell>
        <mxCell id="gxmgwyy8D1BKnNXjqqN9-85" value="performance_tests.sh" style="rounded=0;html=1;labelBorderColor=none;labelBackgroundColor=none;fillColor=#FFFFCC;movable=0;resizable=0;rotatable=0;deletable=0;editable=0;locked=1;connectable=0;" parent="1" vertex="1">
          <mxGeometry x="1540" y="130" width="180" height="20" as="geometry" />
        </mxCell>
        <mxCell id="gxmgwyy8D1BKnNXjqqN9-86" value="performance_tests2.sh" style="rounded=0;html=1;labelBorderColor=none;labelBackgroundColor=none;fillColor=#FFFFCC;movable=0;resizable=0;rotatable=0;deletable=0;editable=0;locked=1;connectable=0;" parent="1" vertex="1">
          <mxGeometry x="1540" y="160" width="180" height="20" as="geometry" />
        </mxCell>
        <mxCell id="gxmgwyy8D1BKnNXjqqN9-87" value="report.py" style="rounded=0;html=1;labelBorderColor=none;labelBackgroundColor=none;fillColor=#FFFFCC;movable=0;resizable=0;rotatable=0;deletable=0;editable=0;locked=1;connectable=0;" parent="1" vertex="1">
          <mxGeometry x="1540" y="190" width="180" height="20" as="geometry" />
        </mxCell>
        <mxCell id="gxmgwyy8D1BKnNXjqqN9-88" value="report_old_version.py" style="rounded=0;html=1;labelBorderColor=none;labelBackgroundColor=none;fillColor=#FFFFCC;movable=0;resizable=0;rotatable=0;deletable=0;editable=0;locked=1;connectable=0;" parent="1" vertex="1">
          <mxGeometry x="1540" y="220" width="180" height="20" as="geometry" />
        </mxCell>
        <mxCell id="gxmgwyy8D1BKnNXjqqN9-89" value="test.sh" style="rounded=0;html=1;labelBorderColor=none;labelBackgroundColor=none;fillColor=#FFFFCC;movable=0;resizable=0;rotatable=0;deletable=0;editable=0;locked=1;connectable=0;" parent="1" vertex="1">
          <mxGeometry x="1540" y="250" width="180" height="20" as="geometry" />
        </mxCell>
        <mxCell id="gxmgwyy8D1BKnNXjqqN9-90" value="threshold.csv" style="rounded=0;html=1;labelBorderColor=none;labelBackgroundColor=none;fillColor=#FFFFCC;movable=0;resizable=0;rotatable=0;deletable=0;editable=0;locked=1;connectable=0;" parent="1" vertex="1">
          <mxGeometry x="1540" y="280" width="180" height="20" as="geometry" />
        </mxCell>
        <mxCell id="gxmgwyy8D1BKnNXjqqN9-92" value="" style="endArrow=classic;html=1;rounded=0;exitX=1;exitY=0.5;exitDx=0;exitDy=0;entryX=0;entryY=0.5;entryDx=0;entryDy=0;movable=0;resizable=0;rotatable=0;deletable=0;editable=0;locked=1;connectable=0;" parent="1" source="gxmgwyy8D1BKnNXjqqN9-30" target="gxmgwyy8D1BKnNXjqqN9-79" edge="1">
          <mxGeometry width="50" height="50" relative="1" as="geometry">
            <mxPoint x="1355" y="210" as="sourcePoint" />
            <mxPoint x="1415" y="540" as="targetPoint" />
          </mxGeometry>
        </mxCell>
        <mxCell id="gxmgwyy8D1BKnNXjqqN9-93" value="" style="endArrow=classic;html=1;rounded=0;exitX=1;exitY=0.5;exitDx=0;exitDy=0;entryX=0;entryY=0.5;entryDx=0;entryDy=0;movable=0;resizable=0;rotatable=0;deletable=0;editable=0;locked=1;connectable=0;" parent="1" source="gxmgwyy8D1BKnNXjqqN9-30" target="gxmgwyy8D1BKnNXjqqN9-80" edge="1">
          <mxGeometry width="50" height="50" relative="1" as="geometry">
            <mxPoint x="1345" y="425" as="sourcePoint" />
            <mxPoint x="1405" y="755" as="targetPoint" />
          </mxGeometry>
        </mxCell>
        <mxCell id="gxmgwyy8D1BKnNXjqqN9-94" value="" style="endArrow=classic;html=1;rounded=0;exitX=1;exitY=0.5;exitDx=0;exitDy=0;entryX=0;entryY=0.5;entryDx=0;entryDy=0;movable=0;resizable=0;rotatable=0;deletable=0;editable=0;locked=1;connectable=0;" parent="1" source="gxmgwyy8D1BKnNXjqqN9-30" target="gxmgwyy8D1BKnNXjqqN9-81" edge="1">
          <mxGeometry width="50" height="50" relative="1" as="geometry">
            <mxPoint x="1355" y="435" as="sourcePoint" />
            <mxPoint x="1415" y="765" as="targetPoint" />
          </mxGeometry>
        </mxCell>
        <mxCell id="gxmgwyy8D1BKnNXjqqN9-95" value="" style="endArrow=classic;html=1;rounded=0;exitX=1;exitY=0.5;exitDx=0;exitDy=0;entryX=0;entryY=0.5;entryDx=0;entryDy=0;movable=0;resizable=0;rotatable=0;deletable=0;editable=0;locked=1;connectable=0;" parent="1" source="gxmgwyy8D1BKnNXjqqN9-30" target="gxmgwyy8D1BKnNXjqqN9-82" edge="1">
          <mxGeometry width="50" height="50" relative="1" as="geometry">
            <mxPoint x="1365" y="445" as="sourcePoint" />
            <mxPoint x="1425" y="775" as="targetPoint" />
          </mxGeometry>
        </mxCell>
        <mxCell id="gxmgwyy8D1BKnNXjqqN9-96" value="" style="endArrow=classic;html=1;rounded=0;exitX=1;exitY=0.5;exitDx=0;exitDy=0;entryX=0;entryY=0.5;entryDx=0;entryDy=0;movable=0;resizable=0;rotatable=0;deletable=0;editable=0;locked=1;connectable=0;" parent="1" source="gxmgwyy8D1BKnNXjqqN9-30" target="gxmgwyy8D1BKnNXjqqN9-83" edge="1">
          <mxGeometry width="50" height="50" relative="1" as="geometry">
            <mxPoint x="1375" y="455" as="sourcePoint" />
            <mxPoint x="1435" y="785" as="targetPoint" />
          </mxGeometry>
        </mxCell>
        <mxCell id="gxmgwyy8D1BKnNXjqqN9-97" value="" style="endArrow=classic;html=1;rounded=0;exitX=1;exitY=0.5;exitDx=0;exitDy=0;entryX=0;entryY=0.5;entryDx=0;entryDy=0;movable=0;resizable=0;rotatable=0;deletable=0;editable=0;locked=1;connectable=0;" parent="1" source="gxmgwyy8D1BKnNXjqqN9-30" target="gxmgwyy8D1BKnNXjqqN9-84" edge="1">
          <mxGeometry width="50" height="50" relative="1" as="geometry">
            <mxPoint x="1385" y="465" as="sourcePoint" />
            <mxPoint x="1445" y="795" as="targetPoint" />
          </mxGeometry>
        </mxCell>
        <mxCell id="gxmgwyy8D1BKnNXjqqN9-98" value="" style="endArrow=classic;html=1;rounded=0;exitX=1;exitY=0.5;exitDx=0;exitDy=0;entryX=0;entryY=0.5;entryDx=0;entryDy=0;movable=0;resizable=0;rotatable=0;deletable=0;editable=0;locked=1;connectable=0;" parent="1" source="gxmgwyy8D1BKnNXjqqN9-30" target="gxmgwyy8D1BKnNXjqqN9-85" edge="1">
          <mxGeometry width="50" height="50" relative="1" as="geometry">
            <mxPoint x="1395" y="475" as="sourcePoint" />
            <mxPoint x="1455" y="805" as="targetPoint" />
          </mxGeometry>
        </mxCell>
        <mxCell id="gxmgwyy8D1BKnNXjqqN9-99" value="" style="endArrow=classic;html=1;rounded=0;exitX=1;exitY=0.5;exitDx=0;exitDy=0;entryX=0;entryY=0.5;entryDx=0;entryDy=0;movable=0;resizable=0;rotatable=0;deletable=0;editable=0;locked=1;connectable=0;" parent="1" source="gxmgwyy8D1BKnNXjqqN9-30" target="gxmgwyy8D1BKnNXjqqN9-86" edge="1">
          <mxGeometry width="50" height="50" relative="1" as="geometry">
            <mxPoint x="1405" y="485" as="sourcePoint" />
            <mxPoint x="1465" y="815" as="targetPoint" />
          </mxGeometry>
        </mxCell>
        <mxCell id="gxmgwyy8D1BKnNXjqqN9-100" value="" style="endArrow=classic;html=1;rounded=0;exitX=1;exitY=0.5;exitDx=0;exitDy=0;entryX=0;entryY=0.5;entryDx=0;entryDy=0;movable=0;resizable=0;rotatable=0;deletable=0;editable=0;locked=1;connectable=0;" parent="1" source="gxmgwyy8D1BKnNXjqqN9-30" target="gxmgwyy8D1BKnNXjqqN9-87" edge="1">
          <mxGeometry width="50" height="50" relative="1" as="geometry">
            <mxPoint x="1415" y="495" as="sourcePoint" />
            <mxPoint x="1475" y="825" as="targetPoint" />
          </mxGeometry>
        </mxCell>
        <mxCell id="gxmgwyy8D1BKnNXjqqN9-101" value="" style="endArrow=classic;html=1;rounded=0;exitX=1;exitY=0.5;exitDx=0;exitDy=0;entryX=0;entryY=0.5;entryDx=0;entryDy=0;movable=0;resizable=0;rotatable=0;deletable=0;editable=0;locked=1;connectable=0;" parent="1" source="gxmgwyy8D1BKnNXjqqN9-30" target="gxmgwyy8D1BKnNXjqqN9-88" edge="1">
          <mxGeometry width="50" height="50" relative="1" as="geometry">
            <mxPoint x="1425" y="505" as="sourcePoint" />
            <mxPoint x="1405" y="585" as="targetPoint" />
          </mxGeometry>
        </mxCell>
        <mxCell id="gxmgwyy8D1BKnNXjqqN9-102" value="" style="endArrow=classic;html=1;rounded=0;exitX=1;exitY=0.5;exitDx=0;exitDy=0;entryX=0;entryY=0.5;entryDx=0;entryDy=0;movable=0;resizable=0;rotatable=0;deletable=0;editable=0;locked=1;connectable=0;" parent="1" source="gxmgwyy8D1BKnNXjqqN9-30" target="gxmgwyy8D1BKnNXjqqN9-89" edge="1">
          <mxGeometry width="50" height="50" relative="1" as="geometry">
            <mxPoint x="1435" y="515" as="sourcePoint" />
            <mxPoint x="1495" y="845" as="targetPoint" />
          </mxGeometry>
        </mxCell>
        <mxCell id="gxmgwyy8D1BKnNXjqqN9-103" value="" style="endArrow=classic;html=1;rounded=0;exitX=1;exitY=0.5;exitDx=0;exitDy=0;entryX=0;entryY=0.5;entryDx=0;entryDy=0;movable=0;resizable=0;rotatable=0;deletable=0;editable=0;locked=1;connectable=0;" parent="1" source="gxmgwyy8D1BKnNXjqqN9-30" target="gxmgwyy8D1BKnNXjqqN9-90" edge="1">
          <mxGeometry width="50" height="50" relative="1" as="geometry">
            <mxPoint x="1445" y="525" as="sourcePoint" />
            <mxPoint x="1505" y="855" as="targetPoint" />
          </mxGeometry>
        </mxCell>
        <mxCell id="gxmgwyy8D1BKnNXjqqN9-104" value="&lt;font style=&quot;font-size: 21px;&quot;&gt;HTEC&lt;br style=&quot;border-color: var(--border-color);&quot;&gt;&lt;font style=&quot;border-color: var(--border-color);&quot;&gt;migraphx-benchmark&lt;/font&gt;&lt;br style=&quot;font-size: 21px;&quot;&gt;&lt;/font&gt;" style="ellipse;whiteSpace=wrap;html=1;fontSize=21;fillColor=#00FFFF;movable=0;resizable=0;rotatable=0;deletable=0;editable=0;locked=1;connectable=0;" parent="1" vertex="1">
          <mxGeometry x="905" y="-1105" width="230" height="120" as="geometry" />
        </mxCell>
        <mxCell id="gxmgwyy8D1BKnNXjqqN9-110" value="miopen-dbs" style="rounded=0;html=1;labelBorderColor=none;labelBackgroundColor=none;fillColor=#66CC00;movable=0;resizable=0;rotatable=0;deletable=0;editable=0;locked=1;connectable=0;" parent="1" vertex="1">
          <mxGeometry x="1275" y="-347.5" width="130" height="20" as="geometry" />
        </mxCell>
        <mxCell id="gxmgwyy8D1BKnNXjqqN9-111" value="rocm5.1.old" style="rounded=0;html=1;labelBorderColor=none;labelBackgroundColor=none;fillColor=#E6FFCC;movable=0;resizable=0;rotatable=0;deletable=0;editable=0;locked=1;connectable=0;" parent="1" vertex="1">
          <mxGeometry x="1540" y="-425" width="120" height="20" as="geometry" />
        </mxCell>
        <mxCell id="gxmgwyy8D1BKnNXjqqN9-112" value="rocm5.1" style="rounded=0;html=1;labelBorderColor=none;labelBackgroundColor=none;fillColor=#E6FFCC;movable=0;resizable=0;rotatable=0;deletable=0;editable=0;locked=1;connectable=0;" parent="1" vertex="1">
          <mxGeometry x="1540" y="-395" width="120" height="20" as="geometry" />
        </mxCell>
        <mxCell id="gxmgwyy8D1BKnNXjqqN9-113" value="rocm5.2" style="rounded=0;html=1;labelBorderColor=none;labelBackgroundColor=none;fillColor=#E6FFCC;movable=0;resizable=0;rotatable=0;deletable=0;editable=0;locked=1;connectable=0;" parent="1" vertex="1">
          <mxGeometry x="1540" y="-365" width="120" height="20" as="geometry" />
        </mxCell>
        <mxCell id="gxmgwyy8D1BKnNXjqqN9-114" value="rocm5.3" style="rounded=0;html=1;labelBorderColor=none;labelBackgroundColor=none;fillColor=#E6FFCC;movable=0;resizable=0;rotatable=0;deletable=0;editable=0;locked=1;connectable=0;" parent="1" vertex="1">
          <mxGeometry x="1540" y="-335" width="120" height="20" as="geometry" />
        </mxCell>
        <mxCell id="gxmgwyy8D1BKnNXjqqN9-115" value="" style="endArrow=classic;html=1;rounded=0;entryX=0;entryY=0.25;entryDx=0;entryDy=0;exitX=1;exitY=0.5;exitDx=0;exitDy=0;movable=0;resizable=0;rotatable=0;deletable=0;editable=0;locked=1;connectable=0;" parent="1" source="gxmgwyy8D1BKnNXjqqN9-110" target="gxmgwyy8D1BKnNXjqqN9-111" edge="1">
          <mxGeometry width="50" height="50" relative="1" as="geometry">
            <mxPoint x="1675" y="-107.5" as="sourcePoint" />
            <mxPoint x="1725" y="-157.5" as="targetPoint" />
          </mxGeometry>
        </mxCell>
        <mxCell id="gxmgwyy8D1BKnNXjqqN9-116" value="" style="endArrow=classic;html=1;rounded=0;entryX=0;entryY=0.5;entryDx=0;entryDy=0;exitX=1;exitY=0.5;exitDx=0;exitDy=0;movable=0;resizable=0;rotatable=0;deletable=0;editable=0;locked=1;connectable=0;" parent="1" source="gxmgwyy8D1BKnNXjqqN9-110" target="gxmgwyy8D1BKnNXjqqN9-112" edge="1">
          <mxGeometry width="50" height="50" relative="1" as="geometry">
            <mxPoint x="1675" y="-107.5" as="sourcePoint" />
            <mxPoint x="1715" y="-157.5" as="targetPoint" />
          </mxGeometry>
        </mxCell>
        <mxCell id="gxmgwyy8D1BKnNXjqqN9-117" value="" style="endArrow=classic;html=1;rounded=0;entryX=0;entryY=0.5;entryDx=0;entryDy=0;exitX=1;exitY=0.5;exitDx=0;exitDy=0;movable=0;resizable=0;rotatable=0;deletable=0;editable=0;locked=1;connectable=0;" parent="1" source="gxmgwyy8D1BKnNXjqqN9-110" target="gxmgwyy8D1BKnNXjqqN9-114" edge="1">
          <mxGeometry width="50" height="50" relative="1" as="geometry">
            <mxPoint x="1675" y="-107.5" as="sourcePoint" />
            <mxPoint x="1705" y="-90" as="targetPoint" />
          </mxGeometry>
        </mxCell>
        <mxCell id="gxmgwyy8D1BKnNXjqqN9-118" value="" style="endArrow=classic;html=1;rounded=0;entryX=0;entryY=0.5;entryDx=0;entryDy=0;exitX=1;exitY=0.5;exitDx=0;exitDy=0;movable=0;resizable=0;rotatable=0;deletable=0;editable=0;locked=1;connectable=0;" parent="1" source="gxmgwyy8D1BKnNXjqqN9-110" target="gxmgwyy8D1BKnNXjqqN9-113" edge="1">
          <mxGeometry width="50" height="50" relative="1" as="geometry">
            <mxPoint x="1655" y="-107.5" as="sourcePoint" />
            <mxPoint x="1705" y="-132.5" as="targetPoint" />
          </mxGeometry>
        </mxCell>
        <mxCell id="gxmgwyy8D1BKnNXjqqN9-119" value="rocm5.4.2" style="rounded=0;html=1;labelBorderColor=none;labelBackgroundColor=none;fillColor=#E6FFCC;movable=0;resizable=0;rotatable=0;deletable=0;editable=0;locked=1;connectable=0;" parent="1" vertex="1">
          <mxGeometry x="1540" y="-300" width="120" height="20" as="geometry" />
        </mxCell>
        <mxCell id="gxmgwyy8D1BKnNXjqqN9-120" value="" style="endArrow=classic;html=1;rounded=0;entryX=0;entryY=0.5;entryDx=0;entryDy=0;exitX=1;exitY=0.5;exitDx=0;exitDy=0;movable=0;resizable=0;rotatable=0;deletable=0;editable=0;locked=1;connectable=0;" parent="1" source="gxmgwyy8D1BKnNXjqqN9-110" target="gxmgwyy8D1BKnNXjqqN9-119" edge="1">
          <mxGeometry width="50" height="50" relative="1" as="geometry">
            <mxPoint x="1665" y="-132.5" as="sourcePoint" />
            <mxPoint x="1785" y="-97.5" as="targetPoint" />
          </mxGeometry>
        </mxCell>
        <mxCell id="gxmgwyy8D1BKnNXjqqN9-121" value="" style="endArrow=classic;html=1;rounded=0;exitX=1;exitY=0.5;exitDx=0;exitDy=0;entryX=0;entryY=0.5;entryDx=0;entryDy=0;movable=0;resizable=0;rotatable=0;deletable=0;editable=0;locked=1;connectable=0;" parent="1" source="gxmgwyy8D1BKnNXjqqN9-110" target="gxmgwyy8D1BKnNXjqqN9-122" edge="1">
          <mxGeometry width="50" height="50" relative="1" as="geometry">
            <mxPoint x="1675" y="-122.5" as="sourcePoint" />
            <mxPoint x="1775" y="-22.5" as="targetPoint" />
          </mxGeometry>
        </mxCell>
        <mxCell id="gxmgwyy8D1BKnNXjqqN9-122" value="rocm5.4" style="rounded=0;html=1;labelBorderColor=none;labelBackgroundColor=none;fillColor=#E6FFCC;movable=0;resizable=0;rotatable=0;deletable=0;editable=0;locked=1;connectable=0;" parent="1" vertex="1">
          <mxGeometry x="1540" y="-270" width="120" height="20" as="geometry" />
        </mxCell>
        <mxCell id="gxmgwyy8D1BKnNXjqqN9-125" value="memory" style="rounded=0;html=1;labelBorderColor=none;labelBackgroundColor=none;fillColor=#E6E6E6;movable=0;resizable=0;rotatable=0;deletable=0;editable=0;locked=1;connectable=0;" parent="1" vertex="1">
          <mxGeometry x="1540" y="315" width="50" height="20" as="geometry" />
        </mxCell>
        <mxCell id="gxmgwyy8D1BKnNXjqqN9-126" value="migx" style="rounded=0;html=1;labelBorderColor=none;labelBackgroundColor=none;fillColor=#E6E6E6;movable=0;resizable=0;rotatable=0;deletable=0;editable=0;locked=1;connectable=0;" parent="1" vertex="1">
          <mxGeometry x="1540" y="355" width="50" height="20" as="geometry" />
        </mxCell>
        <mxCell id="gxmgwyy8D1BKnNXjqqN9-129" value="" style="endArrow=classic;html=1;rounded=0;exitX=1;exitY=0.5;exitDx=0;exitDy=0;entryX=0;entryY=0.5;entryDx=0;entryDy=0;movable=0;resizable=0;rotatable=0;deletable=0;editable=0;locked=1;connectable=0;" parent="1" source="gxmgwyy8D1BKnNXjqqN9-63" target="gxmgwyy8D1BKnNXjqqN9-125" edge="1">
          <mxGeometry width="50" height="50" relative="1" as="geometry">
            <mxPoint x="1145" y="585" as="sourcePoint" />
            <mxPoint x="1195" y="535" as="targetPoint" />
          </mxGeometry>
        </mxCell>
        <mxCell id="gxmgwyy8D1BKnNXjqqN9-130" value="" style="endArrow=classic;html=1;rounded=0;exitX=1;exitY=0.5;exitDx=0;exitDy=0;entryX=0;entryY=0.5;entryDx=0;entryDy=0;movable=0;resizable=0;rotatable=0;deletable=0;editable=0;locked=1;connectable=0;" parent="1" source="gxmgwyy8D1BKnNXjqqN9-63" target="gxmgwyy8D1BKnNXjqqN9-126" edge="1">
          <mxGeometry width="50" height="50" relative="1" as="geometry">
            <mxPoint x="1435" y="555" as="sourcePoint" />
            <mxPoint x="1485" y="505" as="targetPoint" />
          </mxGeometry>
        </mxCell>
        <mxCell id="gxmgwyy8D1BKnNXjqqN9-138" value="" style="verticalLabelPosition=bottom;verticalAlign=top;html=1;shape=mxgraph.basic.tick;fillColor=#00FF00;movable=0;resizable=0;rotatable=0;deletable=0;editable=0;locked=1;connectable=0;" parent="1" vertex="1">
          <mxGeometry x="1015" y="-980" width="15" height="20" as="geometry" />
        </mxCell>
        <mxCell id="gxmgwyy8D1BKnNXjqqN9-139" value="" style="verticalLabelPosition=bottom;verticalAlign=top;html=1;shape=mxgraph.basic.x;fillColor=#FF0000;movable=0;resizable=0;rotatable=0;deletable=0;editable=0;locked=1;connectable=0;" parent="1" vertex="1">
          <mxGeometry x="1335" y="-800" width="10" height="10" as="geometry" />
        </mxCell>
        <mxCell id="gxmgwyy8D1BKnNXjqqN9-145" value="" style="endArrow=classic;html=1;rounded=0;exitX=1;exitY=0.5;exitDx=0;exitDy=0;entryX=0;entryY=0.5;entryDx=0;entryDy=0;strokeWidth=3;movable=0;resizable=0;rotatable=0;deletable=0;editable=0;locked=1;connectable=0;" parent="1" source="gxmgwyy8D1BKnNXjqqN9-143" target="xwbP8etTTOFJ-Utlb-hV-6" edge="1">
          <mxGeometry width="50" height="50" relative="1" as="geometry">
            <mxPoint x="900" y="-810" as="sourcePoint" />
            <mxPoint x="950" y="-860" as="targetPoint" />
          </mxGeometry>
        </mxCell>
        <mxCell id="gxmgwyy8D1BKnNXjqqN9-149" value="" style="verticalLabelPosition=bottom;verticalAlign=top;html=1;shape=mxgraph.basic.x;fillColor=#FF0000;movable=0;resizable=0;rotatable=0;deletable=0;editable=0;locked=1;connectable=0;" parent="1" vertex="1">
          <mxGeometry x="1335" y="-530" width="10" height="10" as="geometry" />
        </mxCell>
        <mxCell id="gxmgwyy8D1BKnNXjqqN9-152" value="" style="verticalLabelPosition=bottom;verticalAlign=top;html=1;shape=mxgraph.basic.x;fillColor=#FF0000;movable=0;resizable=0;rotatable=0;deletable=0;editable=0;locked=1;connectable=0;" parent="1" vertex="1">
          <mxGeometry x="1335" y="-357.5" width="10" height="10" as="geometry" />
        </mxCell>
        <mxCell id="gxmgwyy8D1BKnNXjqqN9-154" value="" style="verticalLabelPosition=bottom;verticalAlign=top;html=1;shape=mxgraph.basic.x;fillColor=#FF0000;movable=0;resizable=0;rotatable=0;deletable=0;editable=0;locked=1;connectable=0;" parent="1" vertex="1">
          <mxGeometry x="1295" y="325" width="10" height="10" as="geometry" />
        </mxCell>
        <mxCell id="gxmgwyy8D1BKnNXjqqN9-155" value="microsoft" style="rounded=0;whiteSpace=wrap;html=1;labelBackgroundColor=none;labelBorderColor=none;fillColor=#FF33FF;movable=0;resizable=0;rotatable=0;deletable=0;editable=0;locked=1;connectable=0;" parent="1" vertex="1">
          <mxGeometry x="670" y="-607.5" width="120" height="60" as="geometry" />
        </mxCell>
        <mxCell id="gxmgwyy8D1BKnNXjqqN9-156" value="" style="endArrow=classic;startArrow=classic;html=1;rounded=0;exitX=1;exitY=0.5;exitDx=0;exitDy=0;entryX=0;entryY=0.5;entryDx=0;entryDy=0;strokeWidth=2;movable=0;resizable=0;rotatable=0;deletable=0;editable=0;locked=1;connectable=0;" parent="1" source="gxmgwyy8D1BKnNXjqqN9-155" target="gxmgwyy8D1BKnNXjqqN9-157" edge="1">
          <mxGeometry width="50" height="50" relative="1" as="geometry">
            <mxPoint x="310" y="-265" as="sourcePoint" />
            <mxPoint x="690" y="-245" as="targetPoint" />
          </mxGeometry>
        </mxCell>
        <mxCell id="gxmgwyy8D1BKnNXjqqN9-157" value="FORKED" style="rounded=0;whiteSpace=wrap;html=1;movable=0;resizable=0;rotatable=0;deletable=0;editable=0;locked=1;connectable=0;" parent="1" vertex="1">
          <mxGeometry x="840" y="-700" width="60" height="20" as="geometry" />
        </mxCell>
        <mxCell id="gxmgwyy8D1BKnNXjqqN9-158" value="" style="endArrow=classic;html=1;rounded=0;exitX=1;exitY=0.5;exitDx=0;exitDy=0;entryX=0;entryY=0.5;entryDx=0;entryDy=0;strokeWidth=2;movable=0;resizable=0;rotatable=0;deletable=0;editable=0;locked=1;connectable=0;" parent="1" source="gxmgwyy8D1BKnNXjqqN9-157" target="xwbP8etTTOFJ-Utlb-hV-12" edge="1">
          <mxGeometry width="50" height="50" relative="1" as="geometry">
            <mxPoint x="890" y="-660" as="sourcePoint" />
            <mxPoint x="940" y="-710" as="targetPoint" />
          </mxGeometry>
        </mxCell>
        <mxCell id="gxmgwyy8D1BKnNXjqqN9-159" value="" style="verticalLabelPosition=bottom;verticalAlign=top;html=1;shape=mxgraph.basic.tick;fillColor=#00FF00;movable=0;resizable=0;rotatable=0;deletable=0;editable=0;locked=1;connectable=0;" parent="1" vertex="1">
          <mxGeometry x="1015" y="-740" width="15" height="20" as="geometry" />
        </mxCell>
        <mxCell id="gxmgwyy8D1BKnNXjqqN9-160" value="mvermeulen" style="rounded=0;whiteSpace=wrap;html=1;labelBackgroundColor=none;labelBorderColor=none;fillColor=#FF99FF;movable=0;resizable=0;rotatable=0;deletable=0;editable=0;locked=1;connectable=0;" parent="1" vertex="1">
          <mxGeometry x="670" y="-537.5" width="120" height="60" as="geometry" />
        </mxCell>
        <mxCell id="gxmgwyy8D1BKnNXjqqN9-161" value="" style="endArrow=classic;startArrow=classic;html=1;rounded=0;exitX=1;exitY=0.5;exitDx=0;exitDy=0;entryX=0;entryY=0.5;entryDx=0;entryDy=0;strokeWidth=2;movable=0;resizable=0;rotatable=0;deletable=0;editable=0;locked=1;connectable=0;" parent="1" source="gxmgwyy8D1BKnNXjqqN9-160" target="gxmgwyy8D1BKnNXjqqN9-162" edge="1">
          <mxGeometry width="50" height="50" relative="1" as="geometry">
            <mxPoint x="310" y="-175" as="sourcePoint" />
            <mxPoint x="690" y="-155" as="targetPoint" />
          </mxGeometry>
        </mxCell>
        <mxCell id="gxmgwyy8D1BKnNXjqqN9-163" value="" style="endArrow=classic;html=1;rounded=0;exitX=1;exitY=0.5;exitDx=0;exitDy=0;entryX=0;entryY=0.5;entryDx=0;entryDy=0;strokeWidth=2;movable=0;resizable=0;rotatable=0;deletable=0;editable=0;locked=1;connectable=0;" parent="1" source="gxmgwyy8D1BKnNXjqqN9-162" target="xwbP8etTTOFJ-Utlb-hV-14" edge="1">
          <mxGeometry width="50" height="50" relative="1" as="geometry">
            <mxPoint x="890" y="-680" as="sourcePoint" />
            <mxPoint x="940" y="-730" as="targetPoint" />
          </mxGeometry>
        </mxCell>
        <mxCell id="gxmgwyy8D1BKnNXjqqN9-164" value="" style="verticalLabelPosition=bottom;verticalAlign=top;html=1;shape=mxgraph.basic.tick;fillColor=#00FF00;movable=0;resizable=0;rotatable=0;deletable=0;editable=0;locked=1;connectable=0;" parent="1" vertex="1">
          <mxGeometry x="1015" y="-650" width="15" height="20" as="geometry" />
        </mxCell>
        <mxCell id="gxmgwyy8D1BKnNXjqqN9-165" value="" style="verticalLabelPosition=bottom;verticalAlign=top;html=1;shape=mxgraph.basic.tick;fillColor=#00FF00;movable=0;resizable=0;rotatable=0;deletable=0;editable=0;locked=1;connectable=0;" parent="1" vertex="1">
          <mxGeometry x="1015" y="-380" width="15" height="20" as="geometry" />
        </mxCell>
        <mxCell id="gxmgwyy8D1BKnNXjqqN9-167" value="" style="verticalLabelPosition=bottom;verticalAlign=top;html=1;shape=mxgraph.basic.tick;fillColor=#00FF00;movable=0;resizable=0;rotatable=0;deletable=0;editable=0;locked=1;connectable=0;" parent="1" vertex="1">
          <mxGeometry x="730" y="-980" width="15" height="20" as="geometry" />
        </mxCell>
        <mxCell id="gxmgwyy8D1BKnNXjqqN9-162" value="FORKED" style="rounded=0;whiteSpace=wrap;html=1;movable=0;resizable=0;rotatable=0;deletable=0;editable=0;locked=1;connectable=0;" parent="1" vertex="1">
          <mxGeometry x="840" y="-610" width="60" height="20" as="geometry" />
        </mxCell>
        <mxCell id="gxmgwyy8D1BKnNXjqqN9-143" value="FORKED" style="rounded=0;whiteSpace=wrap;html=1;movable=0;resizable=0;rotatable=0;deletable=0;editable=0;locked=1;connectable=0;" parent="1" vertex="1">
          <mxGeometry x="845" y="-940" width="60" height="20" as="geometry" />
        </mxCell>
        <mxCell id="gxmgwyy8D1BKnNXjqqN9-180" value="" style="verticalLabelPosition=bottom;verticalAlign=top;html=1;shape=mxgraph.basic.x;fillColor=#FF0000;movable=0;resizable=0;rotatable=0;deletable=0;editable=0;locked=1;connectable=0;" parent="1" vertex="1">
          <mxGeometry x="410" y="-867.5" width="10" height="10" as="geometry" />
        </mxCell>
        <mxCell id="gxmgwyy8D1BKnNXjqqN9-181" value="" style="verticalLabelPosition=bottom;verticalAlign=top;html=1;shape=mxgraph.basic.x;fillColor=#FF0000;movable=0;resizable=0;rotatable=0;deletable=0;editable=0;locked=1;connectable=0;" parent="1" vertex="1">
          <mxGeometry x="410" y="-1067.5" width="10" height="10" as="geometry" />
        </mxCell>
        <mxCell id="gxmgwyy8D1BKnNXjqqN9-182" value="" style="verticalLabelPosition=bottom;verticalAlign=top;html=1;shape=mxgraph.basic.x;fillColor=#FF0000;movable=0;resizable=0;rotatable=0;deletable=0;editable=0;locked=1;connectable=0;" parent="1" vertex="1">
          <mxGeometry x="732.5" y="-810" width="10" height="10" as="geometry" />
        </mxCell>
        <mxCell id="gxmgwyy8D1BKnNXjqqN9-183" value="" style="verticalLabelPosition=bottom;verticalAlign=top;html=1;shape=mxgraph.basic.x;fillColor=#FF0000;movable=0;resizable=0;rotatable=0;deletable=0;editable=0;locked=1;connectable=0;" parent="1" vertex="1">
          <mxGeometry x="732.5" y="-890" width="10" height="10" as="geometry" />
        </mxCell>
        <mxCell id="gxmgwyy8D1BKnNXjqqN9-184" value="" style="verticalLabelPosition=bottom;verticalAlign=top;html=1;shape=mxgraph.basic.x;fillColor=#FF0000;movable=0;resizable=0;rotatable=0;deletable=0;editable=0;locked=1;connectable=0;" parent="1" vertex="1">
          <mxGeometry x="1015" y="-280" width="10" height="10" as="geometry" />
        </mxCell>
        <mxCell id="gxmgwyy8D1BKnNXjqqN9-185" value="" style="verticalLabelPosition=bottom;verticalAlign=top;html=1;shape=mxgraph.basic.x;fillColor=#FF0000;movable=0;resizable=0;rotatable=0;deletable=0;editable=0;locked=1;connectable=0;" parent="1" vertex="1">
          <mxGeometry x="1015" y="-550" width="10" height="10" as="geometry" />
        </mxCell>
        <mxCell id="gxmgwyy8D1BKnNXjqqN9-186" value="" style="verticalLabelPosition=bottom;verticalAlign=top;html=1;shape=mxgraph.basic.x;fillColor=#FF0000;movable=0;resizable=0;rotatable=0;deletable=0;editable=0;locked=1;connectable=0;" parent="1" vertex="1">
          <mxGeometry x="1015" y="-460" width="10" height="10" as="geometry" />
        </mxCell>
        <mxCell id="gxmgwyy8D1BKnNXjqqN9-187" value="" style="verticalLabelPosition=bottom;verticalAlign=top;html=1;shape=mxgraph.basic.x;fillColor=#FF0000;movable=0;resizable=0;rotatable=0;deletable=0;editable=0;locked=1;connectable=0;" parent="1" vertex="1">
          <mxGeometry x="1080" y="-437.5" width="40" height="35" as="geometry" />
        </mxCell>
        <mxCell id="gxmgwyy8D1BKnNXjqqN9-189" value="" style="verticalLabelPosition=bottom;verticalAlign=top;html=1;shape=mxgraph.basic.x;fillColor=#FF0000;movable=0;resizable=0;rotatable=0;deletable=0;editable=0;locked=1;connectable=0;" parent="1" vertex="1">
          <mxGeometry x="1080" y="-167.5" width="40" height="35" as="geometry" />
        </mxCell>
        <mxCell id="gxmgwyy8D1BKnNXjqqN9-209" value="scripts" style="rounded=0;html=1;labelBorderColor=none;labelBackgroundColor=none;fillColor=#FFFF33;movable=0;resizable=0;rotatable=0;deletable=0;editable=0;locked=1;connectable=0;direction=west;" parent="1" vertex="1">
          <mxGeometry x="350" y="-295" width="130" height="20" as="geometry" />
        </mxCell>
        <mxCell id="gxmgwyy8D1BKnNXjqqN9-210" value="accuracy_tests.sh" style="rounded=0;html=1;labelBorderColor=none;labelBackgroundColor=none;fillColor=#FFFFCC;direction=west;movable=0;resizable=0;rotatable=0;deletable=0;editable=0;locked=1;connectable=0;" parent="1" vertex="1">
          <mxGeometry x="35" y="-503.75" width="180" height="20" as="geometry" />
        </mxCell>
        <mxCell id="gxmgwyy8D1BKnNXjqqN9-211" value="benchmark_report_detail.py" style="rounded=0;html=1;labelBorderColor=none;labelBackgroundColor=none;fillColor=#FFFFCC;direction=west;movable=0;resizable=0;rotatable=0;deletable=0;editable=0;locked=1;connectable=0;" parent="1" vertex="1">
          <mxGeometry x="35" y="-476.25" width="180" height="20" as="geometry" />
        </mxCell>
        <mxCell id="gxmgwyy8D1BKnNXjqqN9-212" value="build_migraphx.sh" style="rounded=0;html=1;labelBorderColor=none;labelBackgroundColor=none;fillColor=#FFFFCC;direction=west;movable=0;resizable=0;rotatable=0;deletable=0;editable=0;locked=1;connectable=0;" parent="1" vertex="1">
          <mxGeometry x="35" y="-446.25" width="180" height="20" as="geometry" />
        </mxCell>
        <mxCell id="gxmgwyy8D1BKnNXjqqN9-213" value="build_migraphx_cpu.sh" style="rounded=0;html=1;labelBorderColor=none;labelBackgroundColor=none;fillColor=#FFFFCC;direction=west;movable=0;resizable=0;rotatable=0;deletable=0;editable=0;locked=1;connectable=0;" parent="1" vertex="1">
          <mxGeometry x="35" y="-416.25" width="180" height="20" as="geometry" />
        </mxCell>
        <mxCell id="gxmgwyy8D1BKnNXjqqN9-214" value="build_migraphx_docker.sh" style="rounded=0;html=1;labelBorderColor=none;labelBackgroundColor=none;fillColor=#FFFFCC;direction=west;movable=0;resizable=0;rotatable=0;deletable=0;editable=0;locked=1;connectable=0;" parent="1" vertex="1">
          <mxGeometry x="35" y="-386.25" width="180" height="20" as="geometry" />
        </mxCell>
        <mxCell id="gxmgwyy8D1BKnNXjqqN9-215" value="build_migraphx_docker_latest.sh" style="rounded=0;html=1;labelBorderColor=none;labelBackgroundColor=none;fillColor=#FFFFCC;direction=west;movable=0;resizable=0;rotatable=0;deletable=0;editable=0;locked=1;connectable=0;" parent="1" vertex="1">
          <mxGeometry x="35" y="-356.25" width="180" height="20" as="geometry" />
        </mxCell>
        <mxCell id="gxmgwyy8D1BKnNXjqqN9-216" value="" style="endArrow=classic;html=1;rounded=0;entryX=0;entryY=0.25;entryDx=0;entryDy=0;exitX=1;exitY=0.5;exitDx=0;exitDy=0;movable=0;resizable=0;rotatable=0;deletable=0;editable=0;locked=1;connectable=0;" parent="1" source="gxmgwyy8D1BKnNXjqqN9-209" target="gxmgwyy8D1BKnNXjqqN9-210" edge="1">
          <mxGeometry width="50" height="50" relative="1" as="geometry">
            <mxPoint x="-65" y="162.5" as="sourcePoint" />
            <mxPoint x="-15" y="112.5" as="targetPoint" />
          </mxGeometry>
        </mxCell>
        <mxCell id="gxmgwyy8D1BKnNXjqqN9-217" value="" style="endArrow=classic;html=1;rounded=0;entryX=0;entryY=0.5;entryDx=0;entryDy=0;exitX=1;exitY=0.5;exitDx=0;exitDy=0;movable=0;resizable=0;rotatable=0;deletable=0;editable=0;locked=1;connectable=0;" parent="1" source="gxmgwyy8D1BKnNXjqqN9-209" target="gxmgwyy8D1BKnNXjqqN9-215" edge="1">
          <mxGeometry width="50" height="50" relative="1" as="geometry">
            <mxPoint x="-65" y="162.5" as="sourcePoint" />
            <mxPoint x="-25" y="237.5" as="targetPoint" />
          </mxGeometry>
        </mxCell>
        <mxCell id="gxmgwyy8D1BKnNXjqqN9-218" value="" style="endArrow=classic;html=1;rounded=0;entryX=0;entryY=0.5;entryDx=0;entryDy=0;exitX=1;exitY=0.5;exitDx=0;exitDy=0;movable=0;resizable=0;rotatable=0;deletable=0;editable=0;locked=1;connectable=0;" parent="1" source="gxmgwyy8D1BKnNXjqqN9-209" target="gxmgwyy8D1BKnNXjqqN9-211" edge="1">
          <mxGeometry width="50" height="50" relative="1" as="geometry">
            <mxPoint x="-65" y="162.5" as="sourcePoint" />
            <mxPoint x="-25" y="112.5" as="targetPoint" />
          </mxGeometry>
        </mxCell>
        <mxCell id="gxmgwyy8D1BKnNXjqqN9-219" value="" style="endArrow=classic;html=1;rounded=0;entryX=0;entryY=0.5;entryDx=0;entryDy=0;exitX=1;exitY=0.5;exitDx=0;exitDy=0;movable=0;resizable=0;rotatable=0;deletable=0;editable=0;locked=1;connectable=0;" parent="1" source="gxmgwyy8D1BKnNXjqqN9-209" target="gxmgwyy8D1BKnNXjqqN9-213" edge="1">
          <mxGeometry width="50" height="50" relative="1" as="geometry">
            <mxPoint x="-65" y="162.5" as="sourcePoint" />
            <mxPoint x="-35" y="180" as="targetPoint" />
          </mxGeometry>
        </mxCell>
        <mxCell id="gxmgwyy8D1BKnNXjqqN9-220" value="" style="endArrow=classic;html=1;rounded=0;entryX=0;entryY=0.5;entryDx=0;entryDy=0;exitX=1;exitY=0.5;exitDx=0;exitDy=0;movable=0;resizable=0;rotatable=0;deletable=0;editable=0;locked=1;connectable=0;" parent="1" source="gxmgwyy8D1BKnNXjqqN9-209" target="gxmgwyy8D1BKnNXjqqN9-214" edge="1">
          <mxGeometry width="50" height="50" relative="1" as="geometry">
            <mxPoint x="-65" y="162.5" as="sourcePoint" />
            <mxPoint x="-40" y="187.5" as="targetPoint" />
            <Array as="points" />
          </mxGeometry>
        </mxCell>
        <mxCell id="gxmgwyy8D1BKnNXjqqN9-221" value="" style="endArrow=classic;html=1;rounded=0;entryX=0;entryY=0.5;entryDx=0;entryDy=0;exitX=1;exitY=0.5;exitDx=0;exitDy=0;movable=0;resizable=0;rotatable=0;deletable=0;editable=0;locked=1;connectable=0;" parent="1" source="gxmgwyy8D1BKnNXjqqN9-209" target="gxmgwyy8D1BKnNXjqqN9-212" edge="1">
          <mxGeometry width="50" height="50" relative="1" as="geometry">
            <mxPoint x="-85" y="162.5" as="sourcePoint" />
            <mxPoint x="-35" y="137.5" as="targetPoint" />
          </mxGeometry>
        </mxCell>
        <mxCell id="gxmgwyy8D1BKnNXjqqN9-231" value="tools" style="rounded=0;html=1;labelBorderColor=none;labelBackgroundColor=none;fillColor=#E6E6E6;movable=0;resizable=0;rotatable=0;deletable=0;editable=0;locked=1;connectable=0;direction=west;" parent="1" vertex="1">
          <mxGeometry x="430" y="-27.5" width="50" height="20" as="geometry" />
        </mxCell>
        <mxCell id="gxmgwyy8D1BKnNXjqqN9-244" value="build_prereqs.sh" style="rounded=0;html=1;labelBorderColor=none;labelBackgroundColor=none;fillColor=#FFFFCC;direction=west;movable=0;resizable=0;rotatable=0;deletable=0;editable=0;locked=1;connectable=0;" parent="1" vertex="1">
          <mxGeometry x="35" y="-326.25" width="180" height="20" as="geometry" />
        </mxCell>
        <mxCell id="gxmgwyy8D1BKnNXjqqN9-245" value="clean_after_pr.sh" style="rounded=0;html=1;labelBorderColor=none;labelBackgroundColor=none;fillColor=#FFFFCC;direction=west;movable=0;resizable=0;rotatable=0;deletable=0;editable=0;locked=1;connectable=0;" parent="1" vertex="1">
          <mxGeometry x="35" y="-296.25" width="180" height="20" as="geometry" />
        </mxCell>
        <mxCell id="gxmgwyy8D1BKnNXjqqN9-246" value="comment.py" style="rounded=0;html=1;labelBorderColor=none;labelBackgroundColor=none;fillColor=#FFFFCC;direction=west;movable=0;resizable=0;rotatable=0;deletable=0;editable=0;locked=1;connectable=0;" parent="1" vertex="1">
          <mxGeometry x="35" y="-266.25" width="180" height="20" as="geometry" />
        </mxCell>
        <mxCell id="gxmgwyy8D1BKnNXjqqN9-247" value="compare.sh" style="rounded=0;html=1;labelBorderColor=none;labelBackgroundColor=none;fillColor=#FFFFCC;direction=west;movable=0;resizable=0;rotatable=0;deletable=0;editable=0;locked=1;connectable=0;" parent="1" vertex="1">
          <mxGeometry x="35" y="-236.25" width="180" height="20" as="geometry" />
        </mxCell>
        <mxCell id="gxmgwyy8D1BKnNXjqqN9-248" value="history.py" style="rounded=0;html=1;labelBorderColor=none;labelBackgroundColor=none;fillColor=#FFFFCC;direction=west;movable=0;resizable=0;rotatable=0;deletable=0;editable=0;locked=1;connectable=0;" parent="1" vertex="1">
          <mxGeometry x="35" y="-206.25" width="180" height="20" as="geometry" />
        </mxCell>
        <mxCell id="gxmgwyy8D1BKnNXjqqN9-249" value="ort_benchmark.sh" style="rounded=0;html=1;labelBorderColor=none;labelBackgroundColor=none;fillColor=#FFFFCC;direction=west;movable=0;resizable=0;rotatable=0;deletable=0;editable=0;locked=1;connectable=0;" parent="1" vertex="1">
          <mxGeometry x="35" y="-176.25" width="180" height="20" as="geometry" />
        </mxCell>
        <mxCell id="gxmgwyy8D1BKnNXjqqN9-250" value="performance_tests.sh" style="rounded=0;html=1;labelBorderColor=none;labelBackgroundColor=none;fillColor=#FFFFCC;direction=west;movable=0;resizable=0;rotatable=0;deletable=0;editable=0;locked=1;connectable=0;" parent="1" vertex="1">
          <mxGeometry x="35" y="-146.25" width="180" height="20" as="geometry" />
        </mxCell>
        <mxCell id="gxmgwyy8D1BKnNXjqqN9-252" value="report.py" style="rounded=0;html=1;labelBorderColor=none;labelBackgroundColor=none;fillColor=#FFFFCC;direction=west;movable=0;resizable=0;rotatable=0;deletable=0;editable=0;locked=1;connectable=0;" parent="1" vertex="1">
          <mxGeometry x="35" y="-113.75" width="180" height="20" as="geometry" />
        </mxCell>
        <mxCell id="gxmgwyy8D1BKnNXjqqN9-255" value="threshold.csv" style="rounded=0;html=1;labelBorderColor=none;labelBackgroundColor=none;fillColor=#FFFFCC;direction=west;movable=0;resizable=0;rotatable=0;deletable=0;editable=0;locked=1;connectable=0;" parent="1" vertex="1">
          <mxGeometry x="35" y="-83.75" width="180" height="20" as="geometry" />
        </mxCell>
        <mxCell id="gxmgwyy8D1BKnNXjqqN9-256" value="" style="endArrow=classic;html=1;rounded=0;exitX=1;exitY=0.5;exitDx=0;exitDy=0;entryX=0;entryY=0.5;entryDx=0;entryDy=0;movable=0;resizable=0;rotatable=0;deletable=0;editable=0;locked=1;connectable=0;" parent="1" source="gxmgwyy8D1BKnNXjqqN9-209" target="gxmgwyy8D1BKnNXjqqN9-244" edge="1">
          <mxGeometry width="50" height="50" relative="1" as="geometry">
            <mxPoint x="-95" y="2.5" as="sourcePoint" />
            <mxPoint x="-35" y="332.5" as="targetPoint" />
          </mxGeometry>
        </mxCell>
        <mxCell id="gxmgwyy8D1BKnNXjqqN9-257" value="" style="endArrow=classic;html=1;rounded=0;exitX=1;exitY=0.5;exitDx=0;exitDy=0;entryX=0;entryY=0.5;entryDx=0;entryDy=0;movable=0;resizable=0;rotatable=0;deletable=0;editable=0;locked=1;connectable=0;" parent="1" source="gxmgwyy8D1BKnNXjqqN9-209" target="gxmgwyy8D1BKnNXjqqN9-245" edge="1">
          <mxGeometry width="50" height="50" relative="1" as="geometry">
            <mxPoint x="-105" y="217.5" as="sourcePoint" />
            <mxPoint x="-45" y="547.5" as="targetPoint" />
          </mxGeometry>
        </mxCell>
        <mxCell id="gxmgwyy8D1BKnNXjqqN9-258" value="" style="endArrow=classic;html=1;rounded=0;exitX=1;exitY=0.5;exitDx=0;exitDy=0;entryX=0;entryY=0.5;entryDx=0;entryDy=0;movable=0;resizable=0;rotatable=0;deletable=0;editable=0;locked=1;connectable=0;" parent="1" source="gxmgwyy8D1BKnNXjqqN9-209" target="gxmgwyy8D1BKnNXjqqN9-246" edge="1">
          <mxGeometry width="50" height="50" relative="1" as="geometry">
            <mxPoint x="-95" y="227.5" as="sourcePoint" />
            <mxPoint x="-35" y="557.5" as="targetPoint" />
          </mxGeometry>
        </mxCell>
        <mxCell id="gxmgwyy8D1BKnNXjqqN9-259" value="" style="endArrow=classic;html=1;rounded=0;exitX=1;exitY=0.5;exitDx=0;exitDy=0;entryX=0;entryY=0.5;entryDx=0;entryDy=0;movable=0;resizable=0;rotatable=0;deletable=0;editable=0;locked=1;connectable=0;" parent="1" source="gxmgwyy8D1BKnNXjqqN9-209" target="gxmgwyy8D1BKnNXjqqN9-247" edge="1">
          <mxGeometry width="50" height="50" relative="1" as="geometry">
            <mxPoint x="-85" y="237.5" as="sourcePoint" />
            <mxPoint x="-25" y="567.5" as="targetPoint" />
          </mxGeometry>
        </mxCell>
        <mxCell id="gxmgwyy8D1BKnNXjqqN9-260" value="" style="endArrow=classic;html=1;rounded=0;exitX=1;exitY=0.5;exitDx=0;exitDy=0;entryX=0;entryY=0.5;entryDx=0;entryDy=0;movable=0;resizable=0;rotatable=0;deletable=0;editable=0;locked=1;connectable=0;" parent="1" source="gxmgwyy8D1BKnNXjqqN9-209" target="gxmgwyy8D1BKnNXjqqN9-248" edge="1">
          <mxGeometry width="50" height="50" relative="1" as="geometry">
            <mxPoint x="-75" y="247.5" as="sourcePoint" />
            <mxPoint x="-15" y="577.5" as="targetPoint" />
          </mxGeometry>
        </mxCell>
        <mxCell id="gxmgwyy8D1BKnNXjqqN9-261" value="" style="endArrow=classic;html=1;rounded=0;exitX=1;exitY=0.5;exitDx=0;exitDy=0;entryX=0;entryY=0.5;entryDx=0;entryDy=0;movable=0;resizable=0;rotatable=0;deletable=0;editable=0;locked=1;connectable=0;" parent="1" source="gxmgwyy8D1BKnNXjqqN9-209" target="gxmgwyy8D1BKnNXjqqN9-249" edge="1">
          <mxGeometry width="50" height="50" relative="1" as="geometry">
            <mxPoint x="-65" y="257.5" as="sourcePoint" />
            <mxPoint x="-5" y="587.5" as="targetPoint" />
          </mxGeometry>
        </mxCell>
        <mxCell id="gxmgwyy8D1BKnNXjqqN9-262" value="" style="endArrow=classic;html=1;rounded=0;exitX=1;exitY=0.5;exitDx=0;exitDy=0;entryX=0;entryY=0.5;entryDx=0;entryDy=0;movable=0;resizable=0;rotatable=0;deletable=0;editable=0;locked=1;connectable=0;" parent="1" source="gxmgwyy8D1BKnNXjqqN9-209" target="gxmgwyy8D1BKnNXjqqN9-250" edge="1">
          <mxGeometry width="50" height="50" relative="1" as="geometry">
            <mxPoint x="-55" y="267.5" as="sourcePoint" />
            <mxPoint x="5" y="597.5" as="targetPoint" />
          </mxGeometry>
        </mxCell>
        <mxCell id="gxmgwyy8D1BKnNXjqqN9-264" value="" style="endArrow=classic;html=1;rounded=0;exitX=1;exitY=0.5;exitDx=0;exitDy=0;entryX=0;entryY=0.5;entryDx=0;entryDy=0;movable=0;resizable=0;rotatable=0;deletable=0;editable=0;locked=1;connectable=0;" parent="1" source="gxmgwyy8D1BKnNXjqqN9-209" target="gxmgwyy8D1BKnNXjqqN9-252" edge="1">
          <mxGeometry width="50" height="50" relative="1" as="geometry">
            <mxPoint x="-35" y="287.5" as="sourcePoint" />
            <mxPoint x="25" y="617.5" as="targetPoint" />
          </mxGeometry>
        </mxCell>
        <mxCell id="gxmgwyy8D1BKnNXjqqN9-267" value="" style="endArrow=classic;html=1;rounded=0;exitX=1;exitY=0.5;exitDx=0;exitDy=0;entryX=0;entryY=0.5;entryDx=0;entryDy=0;movable=0;resizable=0;rotatable=0;deletable=0;editable=0;locked=1;connectable=0;" parent="1" source="gxmgwyy8D1BKnNXjqqN9-209" target="gxmgwyy8D1BKnNXjqqN9-255" edge="1">
          <mxGeometry width="50" height="50" relative="1" as="geometry">
            <mxPoint x="-5" y="317.5" as="sourcePoint" />
            <mxPoint x="55" y="647.5" as="targetPoint" />
          </mxGeometry>
        </mxCell>
        <mxCell id="gxmgwyy8D1BKnNXjqqN9-268" value="miopen-dbs" style="rounded=0;html=1;labelBorderColor=none;labelBackgroundColor=none;fillColor=#66CC00;movable=0;resizable=0;rotatable=0;deletable=0;editable=0;locked=1;connectable=0;direction=west;" parent="1" vertex="1">
          <mxGeometry x="350" y="-582.5" width="130" height="20" as="geometry" />
        </mxCell>
        <mxCell id="gxmgwyy8D1BKnNXjqqN9-269" value="rocm5.1.old" style="rounded=0;html=1;labelBorderColor=none;labelBackgroundColor=none;fillColor=#E6FFCC;direction=west;movable=0;resizable=0;rotatable=0;deletable=0;editable=0;locked=1;connectable=0;" parent="1" vertex="1">
          <mxGeometry x="95" y="-628.75" width="120" height="20" as="geometry" />
        </mxCell>
        <mxCell id="gxmgwyy8D1BKnNXjqqN9-270" value="rocm5.1" style="rounded=0;html=1;labelBorderColor=none;labelBackgroundColor=none;fillColor=#E6FFCC;direction=west;movable=0;resizable=0;rotatable=0;deletable=0;editable=0;locked=1;connectable=0;" parent="1" vertex="1">
          <mxGeometry x="95" y="-598.75" width="120" height="20" as="geometry" />
        </mxCell>
        <mxCell id="gxmgwyy8D1BKnNXjqqN9-271" value="rocm5.2" style="rounded=0;html=1;labelBorderColor=none;labelBackgroundColor=none;fillColor=#E6FFCC;direction=west;movable=0;resizable=0;rotatable=0;deletable=0;editable=0;locked=1;connectable=0;" parent="1" vertex="1">
          <mxGeometry x="95" y="-568.75" width="120" height="20" as="geometry" />
        </mxCell>
        <mxCell id="gxmgwyy8D1BKnNXjqqN9-273" value="" style="endArrow=classic;html=1;rounded=0;entryX=0;entryY=0.25;entryDx=0;entryDy=0;exitX=1;exitY=0.5;exitDx=0;exitDy=0;movable=0;resizable=0;rotatable=0;deletable=0;editable=0;locked=1;connectable=0;" parent="1" source="gxmgwyy8D1BKnNXjqqN9-268" target="gxmgwyy8D1BKnNXjqqN9-269" edge="1">
          <mxGeometry width="50" height="50" relative="1" as="geometry">
            <mxPoint x="355" y="-292.5" as="sourcePoint" />
            <mxPoint x="405" y="-342.5" as="targetPoint" />
          </mxGeometry>
        </mxCell>
        <mxCell id="gxmgwyy8D1BKnNXjqqN9-274" value="" style="endArrow=classic;html=1;rounded=0;entryX=0;entryY=0.5;entryDx=0;entryDy=0;exitX=1;exitY=0.5;exitDx=0;exitDy=0;movable=0;resizable=0;rotatable=0;deletable=0;editable=0;locked=1;connectable=0;" parent="1" source="gxmgwyy8D1BKnNXjqqN9-268" target="gxmgwyy8D1BKnNXjqqN9-270" edge="1">
          <mxGeometry width="50" height="50" relative="1" as="geometry">
            <mxPoint x="355" y="-292.5" as="sourcePoint" />
            <mxPoint x="395" y="-342.5" as="targetPoint" />
          </mxGeometry>
        </mxCell>
        <mxCell id="gxmgwyy8D1BKnNXjqqN9-276" value="" style="endArrow=classic;html=1;rounded=0;entryX=0;entryY=0.5;entryDx=0;entryDy=0;exitX=1;exitY=0.5;exitDx=0;exitDy=0;movable=0;resizable=0;rotatable=0;deletable=0;editable=0;locked=1;connectable=0;" parent="1" source="gxmgwyy8D1BKnNXjqqN9-268" target="gxmgwyy8D1BKnNXjqqN9-271" edge="1">
          <mxGeometry width="50" height="50" relative="1" as="geometry">
            <mxPoint x="335" y="-292.5" as="sourcePoint" />
            <mxPoint x="385" y="-317.5" as="targetPoint" />
          </mxGeometry>
        </mxCell>
        <mxCell id="gxmgwyy8D1BKnNXjqqN9-277" value="rocm5.4.2" style="rounded=0;html=1;labelBorderColor=none;labelBackgroundColor=none;fillColor=#E6FFCC;direction=west;movable=0;resizable=0;rotatable=0;deletable=0;editable=0;locked=1;connectable=0;" parent="1" vertex="1">
          <mxGeometry x="95" y="-538.75" width="120" height="20" as="geometry" />
        </mxCell>
        <mxCell id="gxmgwyy8D1BKnNXjqqN9-278" value="" style="endArrow=classic;html=1;rounded=0;entryX=0;entryY=0.5;entryDx=0;entryDy=0;exitX=1;exitY=0.5;exitDx=0;exitDy=0;movable=0;resizable=0;rotatable=0;deletable=0;editable=0;locked=1;connectable=0;" parent="1" source="gxmgwyy8D1BKnNXjqqN9-268" target="gxmgwyy8D1BKnNXjqqN9-277" edge="1">
          <mxGeometry width="50" height="50" relative="1" as="geometry">
            <mxPoint x="345" y="-317.5" as="sourcePoint" />
            <mxPoint x="465" y="-282.5" as="targetPoint" />
          </mxGeometry>
        </mxCell>
        <mxCell id="gxmgwyy8D1BKnNXjqqN9-281" value="memory" style="rounded=0;html=1;labelBorderColor=none;labelBackgroundColor=none;fillColor=#E6E6E6;direction=west;movable=0;resizable=0;rotatable=0;deletable=0;editable=0;locked=1;connectable=0;" parent="1" vertex="1">
          <mxGeometry x="165" y="-38.75" width="50" height="20" as="geometry" />
        </mxCell>
        <mxCell id="gxmgwyy8D1BKnNXjqqN9-282" value="migx" style="rounded=0;html=1;labelBorderColor=none;labelBackgroundColor=none;fillColor=#E6E6E6;direction=west;movable=0;resizable=0;rotatable=0;deletable=0;editable=0;locked=1;connectable=0;" parent="1" vertex="1">
          <mxGeometry x="165" y="-8.75" width="50" height="20" as="geometry" />
        </mxCell>
        <mxCell id="gxmgwyy8D1BKnNXjqqN9-283" value="" style="endArrow=classic;html=1;rounded=0;exitX=1;exitY=0.5;exitDx=0;exitDy=0;entryX=0;entryY=0.5;entryDx=0;entryDy=0;movable=0;resizable=0;rotatable=0;deletable=0;editable=0;locked=1;connectable=0;" parent="1" source="gxmgwyy8D1BKnNXjqqN9-231" target="gxmgwyy8D1BKnNXjqqN9-281" edge="1">
          <mxGeometry width="50" height="50" relative="1" as="geometry">
            <mxPoint x="-45" y="392.5" as="sourcePoint" />
            <mxPoint x="5" y="342.5" as="targetPoint" />
          </mxGeometry>
        </mxCell>
        <mxCell id="gxmgwyy8D1BKnNXjqqN9-284" value="" style="endArrow=classic;html=1;rounded=0;exitX=1;exitY=0.5;exitDx=0;exitDy=0;entryX=0;entryY=0.5;entryDx=0;entryDy=0;movable=0;resizable=0;rotatable=0;deletable=0;editable=0;locked=1;connectable=0;" parent="1" source="gxmgwyy8D1BKnNXjqqN9-231" target="gxmgwyy8D1BKnNXjqqN9-282" edge="1">
          <mxGeometry width="50" height="50" relative="1" as="geometry">
            <mxPoint x="245" y="362.5" as="sourcePoint" />
            <mxPoint x="295" y="312.5" as="targetPoint" />
          </mxGeometry>
        </mxCell>
        <mxCell id="gxmgwyy8D1BKnNXjqqN9-292" value="&lt;font style=&quot;font-size: 21px;&quot;&gt;FORK&lt;br style=&quot;font-size: 21px;&quot;&gt;&lt;/font&gt;" style="ellipse;whiteSpace=wrap;html=1;fontSize=21;fillColor=#FF66FF;movable=0;resizable=0;rotatable=0;deletable=0;editable=0;locked=1;connectable=0;" parent="1" vertex="1">
          <mxGeometry x="675" y="-655" width="110" height="40" as="geometry" />
        </mxCell>
        <mxCell id="gxmgwyy8D1BKnNXjqqN9-222" value="dockerfiles" style="rounded=0;labelBorderColor=none;labelBackgroundColor=none;fillColor=#007FFF;movable=0;resizable=0;rotatable=0;deletable=0;editable=0;locked=1;connectable=0;shadow=0;html=1;flipV=0;flipH=0;direction=west;" parent="1" vertex="1">
          <mxGeometry x="350" y="-712.5" width="130" height="20" as="geometry" />
        </mxCell>
        <mxCell id="gxmgwyy8D1BKnNXjqqN9-223" value="patch" style="rounded=0;labelBorderColor=none;labelBackgroundColor=none;fillColor=#99CCFF;shadow=0;html=1;flipV=0;flipH=0;direction=west;movable=0;resizable=0;rotatable=0;deletable=0;editable=0;locked=1;connectable=0;" parent="1" vertex="1">
          <mxGeometry x="95" y="-753.75" width="120" height="20" as="geometry" />
        </mxCell>
        <mxCell id="gxmgwyy8D1BKnNXjqqN9-224" value="Daily.Dockerfile" style="rounded=0;labelBorderColor=none;labelBackgroundColor=none;fillColor=#99CCFF;shadow=0;html=1;flipV=0;flipH=0;direction=west;movable=0;resizable=0;rotatable=0;deletable=0;editable=0;locked=1;connectable=0;" parent="1" vertex="1">
          <mxGeometry x="95" y="-723.75" width="120" height="20" as="geometry" />
        </mxCell>
        <mxCell id="gxmgwyy8D1BKnNXjqqN9-225" value="Dockerfile" style="rounded=0;labelBorderColor=none;labelBackgroundColor=none;fillColor=#99CCFF;shadow=0;html=1;flipV=0;flipH=0;direction=west;movable=0;resizable=0;rotatable=0;deletable=0;editable=0;locked=1;connectable=0;" parent="1" vertex="1">
          <mxGeometry x="95" y="-693.75" width="120" height="20" as="geometry" />
        </mxCell>
        <mxCell id="gxmgwyy8D1BKnNXjqqN9-226" value="Ort.Dockerfile" style="rounded=0;labelBorderColor=none;labelBackgroundColor=none;fillColor=#99CCFF;shadow=0;html=1;flipV=0;flipH=0;direction=west;movable=0;resizable=0;rotatable=0;deletable=0;editable=0;locked=1;connectable=0;" parent="1" vertex="1">
          <mxGeometry x="95" y="-663.75" width="120" height="20" as="geometry" />
        </mxCell>
        <mxCell id="gxmgwyy8D1BKnNXjqqN9-227" value="" style="endArrow=classic;rounded=0;entryX=0;entryY=0.25;entryDx=0;entryDy=0;exitX=1;exitY=0.5;exitDx=0;exitDy=0;shadow=0;html=1;movable=0;resizable=0;rotatable=0;deletable=0;editable=0;locked=1;connectable=0;" parent="1" source="gxmgwyy8D1BKnNXjqqN9-222" target="gxmgwyy8D1BKnNXjqqN9-223" edge="1">
          <mxGeometry width="50" height="50" relative="1" as="geometry">
            <mxPoint x="325" y="-622.5" as="sourcePoint" />
            <mxPoint x="275" y="-672.5" as="targetPoint" />
          </mxGeometry>
        </mxCell>
        <mxCell id="gxmgwyy8D1BKnNXjqqN9-228" value="" style="endArrow=classic;rounded=0;entryX=0;entryY=0.5;entryDx=0;entryDy=0;exitX=1;exitY=0.5;exitDx=0;exitDy=0;shadow=0;html=1;movable=0;resizable=0;rotatable=0;deletable=0;editable=0;locked=1;connectable=0;" parent="1" source="gxmgwyy8D1BKnNXjqqN9-222" target="gxmgwyy8D1BKnNXjqqN9-224" edge="1">
          <mxGeometry width="50" height="50" relative="1" as="geometry">
            <mxPoint x="325" y="-622.5" as="sourcePoint" />
            <mxPoint x="285" y="-672.5" as="targetPoint" />
          </mxGeometry>
        </mxCell>
        <mxCell id="gxmgwyy8D1BKnNXjqqN9-229" value="" style="endArrow=classic;rounded=0;entryX=0;entryY=0.5;entryDx=0;entryDy=0;exitX=1;exitY=0.5;exitDx=0;exitDy=0;shadow=0;html=1;movable=0;resizable=0;rotatable=0;deletable=0;editable=0;locked=1;connectable=0;" parent="1" source="gxmgwyy8D1BKnNXjqqN9-222" target="gxmgwyy8D1BKnNXjqqN9-226" edge="1">
          <mxGeometry width="50" height="50" relative="1" as="geometry">
            <mxPoint x="325" y="-622.5" as="sourcePoint" />
            <mxPoint x="295" y="-605" as="targetPoint" />
          </mxGeometry>
        </mxCell>
        <mxCell id="gxmgwyy8D1BKnNXjqqN9-230" value="" style="endArrow=classic;rounded=0;entryX=0;entryY=0.5;entryDx=0;entryDy=0;exitX=1;exitY=0.5;exitDx=0;exitDy=0;shadow=0;html=1;movable=0;resizable=0;rotatable=0;deletable=0;editable=0;locked=1;connectable=0;" parent="1" source="gxmgwyy8D1BKnNXjqqN9-222" target="gxmgwyy8D1BKnNXjqqN9-225" edge="1">
          <mxGeometry width="50" height="50" relative="1" as="geometry">
            <mxPoint x="345" y="-622.5" as="sourcePoint" />
            <mxPoint x="295" y="-647.5" as="targetPoint" />
          </mxGeometry>
        </mxCell>
        <mxCell id="gxmgwyy8D1BKnNXjqqN9-232" value="" style="endArrow=classic;rounded=0;exitX=1;exitY=0.5;exitDx=0;exitDy=0;entryX=0;entryY=0.5;entryDx=0;entryDy=0;shadow=0;html=1;movable=0;resizable=0;rotatable=0;deletable=0;editable=0;locked=1;connectable=0;" parent="1" source="gxmgwyy8D1BKnNXjqqN9-223" target="gxmgwyy8D1BKnNXjqqN9-233" edge="1">
          <mxGeometry width="50" height="50" relative="1" as="geometry">
            <mxPoint x="-15" y="-703.75" as="sourcePoint" />
            <mxPoint x="25" y="-693.75" as="targetPoint" />
          </mxGeometry>
        </mxCell>
        <mxCell id="gxmgwyy8D1BKnNXjqqN9-233" value="half" style="rounded=0;labelBorderColor=none;labelBackgroundColor=none;fillColor=#99CCFF;shadow=0;html=1;flipV=0;flipH=0;direction=west;movable=0;resizable=0;rotatable=0;deletable=0;editable=0;locked=1;connectable=0;" parent="1" vertex="1">
          <mxGeometry x="-75" y="-791.25" width="120" height="20" as="geometry" />
        </mxCell>
        <mxCell id="gxmgwyy8D1BKnNXjqqN9-234" value="" style="endArrow=classic;rounded=0;exitX=1;exitY=0.5;exitDx=0;exitDy=0;entryX=0;entryY=0.5;entryDx=0;entryDy=0;shadow=0;html=1;movable=0;resizable=0;rotatable=0;deletable=0;editable=0;locked=1;connectable=0;" parent="1" source="gxmgwyy8D1BKnNXjqqN9-223" target="gxmgwyy8D1BKnNXjqqN9-237" edge="1">
          <mxGeometry width="50" height="50" relative="1" as="geometry">
            <mxPoint x="-5" y="-643.75" as="sourcePoint" />
            <mxPoint x="-15" y="-703.75" as="targetPoint" />
          </mxGeometry>
        </mxCell>
        <mxCell id="gxmgwyy8D1BKnNXjqqN9-235" value="" style="endArrow=classic;rounded=0;exitX=1;exitY=0.5;exitDx=0;exitDy=0;entryX=0;entryY=0.5;entryDx=0;entryDy=0;shadow=0;html=1;movable=0;resizable=0;rotatable=0;deletable=0;editable=0;locked=1;connectable=0;" parent="1" source="gxmgwyy8D1BKnNXjqqN9-223" target="gxmgwyy8D1BKnNXjqqN9-238" edge="1">
          <mxGeometry width="50" height="50" relative="1" as="geometry">
            <mxPoint x="65" y="-683.75" as="sourcePoint" />
            <mxPoint x="-25" y="-663.75" as="targetPoint" />
          </mxGeometry>
        </mxCell>
        <mxCell id="gxmgwyy8D1BKnNXjqqN9-236" value="" style="endArrow=classic;rounded=0;exitX=1;exitY=0.5;exitDx=0;exitDy=0;entryX=0;entryY=0.5;entryDx=0;entryDy=0;shadow=0;html=1;movable=0;resizable=0;rotatable=0;deletable=0;editable=0;locked=1;connectable=0;" parent="1" source="gxmgwyy8D1BKnNXjqqN9-223" target="gxmgwyy8D1BKnNXjqqN9-239" edge="1">
          <mxGeometry width="50" height="50" relative="1" as="geometry">
            <mxPoint x="55" y="-673.75" as="sourcePoint" />
            <mxPoint x="5" y="-623.75" as="targetPoint" />
          </mxGeometry>
        </mxCell>
        <mxCell id="gxmgwyy8D1BKnNXjqqN9-237" value="half.hpp" style="rounded=0;labelBorderColor=none;labelBackgroundColor=none;fillColor=#99CCFF;shadow=0;html=1;flipV=0;flipH=0;direction=west;movable=0;resizable=0;rotatable=0;deletable=0;editable=0;locked=1;connectable=0;" parent="1" vertex="1">
          <mxGeometry x="-75" y="-766.25" width="120" height="20" as="geometry" />
        </mxCell>
        <mxCell id="gxmgwyy8D1BKnNXjqqN9-238" value="patch.disable_migraphx_doc" style="rounded=0;labelBorderColor=none;labelBackgroundColor=none;fillColor=#99CCFF;shadow=0;html=1;flipV=0;flipH=0;direction=west;movable=0;resizable=0;rotatable=0;deletable=0;editable=0;locked=1;connectable=0;" parent="1" vertex="1">
          <mxGeometry x="-130" y="-741.25" width="175" height="20" as="geometry" />
        </mxCell>
        <mxCell id="gxmgwyy8D1BKnNXjqqN9-239" value="patch.enable_gfx1030" style="rounded=0;labelBorderColor=none;labelBackgroundColor=none;fillColor=#99CCFF;shadow=0;html=1;flipV=0;flipH=0;direction=west;movable=0;resizable=0;rotatable=0;deletable=0;editable=0;locked=1;connectable=0;" parent="1" vertex="1">
          <mxGeometry x="-130" y="-716.25" width="175" height="20" as="geometry" />
        </mxCell>
        <mxCell id="gxmgwyy8D1BKnNXjqqN9-240" value="half.hpp" style="rounded=0;labelBorderColor=none;labelBackgroundColor=none;fillColor=#99CCFF;shadow=0;html=1;flipV=1;flipH=0;direction=west;movable=0;resizable=0;rotatable=0;deletable=0;editable=0;locked=1;connectable=0;" parent="1" vertex="1">
          <mxGeometry x="-250" y="-791.25" width="120" height="20" as="geometry" />
        </mxCell>
        <mxCell id="gxmgwyy8D1BKnNXjqqN9-241" value="" style="endArrow=classic;rounded=0;exitX=1;exitY=0.5;exitDx=0;exitDy=0;entryX=0;entryY=0.5;entryDx=0;entryDy=0;shadow=0;html=1;movable=0;resizable=0;rotatable=0;deletable=0;editable=0;locked=1;connectable=0;" parent="1" source="gxmgwyy8D1BKnNXjqqN9-233" target="gxmgwyy8D1BKnNXjqqN9-240" edge="1">
          <mxGeometry width="50" height="50" relative="1" as="geometry">
            <mxPoint x="-95" y="-588.75" as="sourcePoint" />
            <mxPoint x="-165" y="-758.75" as="targetPoint" />
          </mxGeometry>
        </mxCell>
        <mxCell id="gxmgwyy8D1BKnNXjqqN9-295" value="" style="endArrow=classic;html=1;rounded=0;exitX=0;exitY=0.5;exitDx=0;exitDy=0;entryX=0;entryY=0.5;entryDx=0;entryDy=0;movable=0;resizable=0;rotatable=0;deletable=0;editable=0;locked=1;connectable=0;" parent="1" source="gxmgwyy8D1BKnNXjqqN9-2" target="gxmgwyy8D1BKnNXjqqN9-268" edge="1">
          <mxGeometry width="50" height="50" relative="1" as="geometry">
            <mxPoint x="440" y="-610" as="sourcePoint" />
            <mxPoint x="240" y="-600" as="targetPoint" />
          </mxGeometry>
        </mxCell>
        <mxCell id="gxmgwyy8D1BKnNXjqqN9-296" value="" style="endArrow=classic;html=1;rounded=0;exitX=0;exitY=0.5;exitDx=0;exitDy=0;entryX=0;entryY=0.5;entryDx=0;entryDy=0;movable=0;resizable=0;rotatable=0;deletable=0;editable=0;locked=1;connectable=0;" parent="1" source="gxmgwyy8D1BKnNXjqqN9-2" target="gxmgwyy8D1BKnNXjqqN9-209" edge="1">
          <mxGeometry width="50" height="50" relative="1" as="geometry">
            <mxPoint x="460" y="-550" as="sourcePoint" />
            <mxPoint x="290" y="-410" as="targetPoint" />
          </mxGeometry>
        </mxCell>
        <mxCell id="gxmgwyy8D1BKnNXjqqN9-303" value="" style="endArrow=classic;html=1;rounded=0;entryX=0;entryY=0.5;entryDx=0;entryDy=0;exitX=0;exitY=0.5;exitDx=0;exitDy=0;movable=0;resizable=0;rotatable=0;deletable=0;editable=0;locked=1;connectable=0;" parent="1" source="gxmgwyy8D1BKnNXjqqN9-2" target="gxmgwyy8D1BKnNXjqqN9-231" edge="1">
          <mxGeometry width="50" height="50" relative="1" as="geometry">
            <mxPoint x="570" y="-240" as="sourcePoint" />
            <mxPoint x="425" y="-130" as="targetPoint" />
          </mxGeometry>
        </mxCell>
        <mxCell id="gxmgwyy8D1BKnNXjqqN9-310" value="github action workflows" style="rounded=0;html=1;labelBorderColor=none;labelBackgroundColor=none;fillColor=#FF9933;direction=west;movable=0;resizable=0;rotatable=0;deletable=0;editable=0;locked=1;connectable=0;" parent="1" vertex="1">
          <mxGeometry x="350" y="-1057.5" width="130" height="20" as="geometry" />
        </mxCell>
        <mxCell id="gxmgwyy8D1BKnNXjqqN9-316" value="" style="endArrow=classic;html=1;rounded=0;entryX=1;entryY=0.5;entryDx=0;entryDy=0;exitX=1;exitY=0.5;exitDx=0;exitDy=0;movable=0;resizable=0;rotatable=0;deletable=0;editable=0;locked=1;connectable=0;" parent="1" source="gxmgwyy8D1BKnNXjqqN9-310" target="gxmgwyy8D1BKnNXjqqN9-342" edge="1">
          <mxGeometry width="50" height="50" relative="1" as="geometry">
            <mxPoint x="170" y="-1095" as="sourcePoint" />
            <mxPoint x="340" y="-1015" as="targetPoint" />
          </mxGeometry>
        </mxCell>
        <mxCell id="gxmgwyy8D1BKnNXjqqN9-317" value="" style="endArrow=classic;html=1;rounded=0;exitX=1;exitY=0.5;exitDx=0;exitDy=0;entryX=1;entryY=0.5;entryDx=0;entryDy=0;movable=0;resizable=0;rotatable=0;deletable=0;editable=0;locked=1;connectable=0;" parent="1" source="gxmgwyy8D1BKnNXjqqN9-310" target="gxmgwyy8D1BKnNXjqqN9-338" edge="1">
          <mxGeometry width="50" height="50" relative="1" as="geometry">
            <mxPoint x="170" y="-1095" as="sourcePoint" />
            <mxPoint x="340" y="-1135" as="targetPoint" />
          </mxGeometry>
        </mxCell>
        <mxCell id="gxmgwyy8D1BKnNXjqqN9-318" value="" style="endArrow=classic;html=1;rounded=0;entryX=1;entryY=0.5;entryDx=0;entryDy=0;exitX=1;exitY=0.5;exitDx=0;exitDy=0;movable=0;resizable=0;rotatable=0;deletable=0;editable=0;locked=1;connectable=0;" parent="1" source="gxmgwyy8D1BKnNXjqqN9-310" target="gxmgwyy8D1BKnNXjqqN9-340" edge="1">
          <mxGeometry width="50" height="50" relative="1" as="geometry">
            <mxPoint x="380" y="-1100" as="sourcePoint" />
            <mxPoint x="340" y="-1075" as="targetPoint" />
          </mxGeometry>
        </mxCell>
        <mxCell id="gxmgwyy8D1BKnNXjqqN9-319" value="" style="endArrow=classic;html=1;rounded=0;entryX=1;entryY=0.5;entryDx=0;entryDy=0;exitX=1;exitY=0.5;exitDx=0;exitDy=0;movable=0;resizable=0;rotatable=0;deletable=0;editable=0;locked=1;connectable=0;" parent="1" source="gxmgwyy8D1BKnNXjqqN9-310" target="gxmgwyy8D1BKnNXjqqN9-341" edge="1">
          <mxGeometry width="50" height="50" relative="1" as="geometry">
            <mxPoint x="380" y="-1100" as="sourcePoint" />
            <mxPoint x="340" y="-1045" as="targetPoint" />
            <Array as="points" />
          </mxGeometry>
        </mxCell>
        <mxCell id="gxmgwyy8D1BKnNXjqqN9-320" value="" style="endArrow=classic;html=1;rounded=0;entryX=1;entryY=0.5;entryDx=0;entryDy=0;exitX=1;exitY=0.5;exitDx=0;exitDy=0;movable=0;resizable=0;rotatable=0;deletable=0;editable=0;locked=1;connectable=0;" parent="1" source="gxmgwyy8D1BKnNXjqqN9-310" target="gxmgwyy8D1BKnNXjqqN9-339" edge="1">
          <mxGeometry width="50" height="50" relative="1" as="geometry">
            <mxPoint x="170" y="-1095" as="sourcePoint" />
            <mxPoint x="340" y="-1105" as="targetPoint" />
          </mxGeometry>
        </mxCell>
        <mxCell id="gxmgwyy8D1BKnNXjqqN9-321" value="github action workflows" style="rounded=0;html=1;labelBorderColor=none;labelBackgroundColor=none;fillColor=#FF9933;movable=0;resizable=0;rotatable=0;deletable=0;editable=0;locked=1;connectable=0;" parent="1" vertex="1">
          <mxGeometry x="1275" y="-1057.5" width="130" height="20" as="geometry" />
        </mxCell>
        <mxCell id="gxmgwyy8D1BKnNXjqqN9-322" value="backup_test_pr.yaml" style="rounded=0;html=1;labelBorderColor=none;labelBackgroundColor=none;fillColor=#FFB366;movable=0;resizable=0;rotatable=0;deletable=0;editable=0;locked=1;connectable=0;" parent="1" vertex="1">
          <mxGeometry x="1540" y="-1177.5" width="200" height="20" as="geometry" />
        </mxCell>
        <mxCell id="gxmgwyy8D1BKnNXjqqN9-323" value="benchmark.yaml" style="rounded=0;html=1;labelBorderColor=none;labelBackgroundColor=none;fillColor=#FFB366;movable=0;resizable=0;rotatable=0;deletable=0;editable=0;locked=1;connectable=0;" parent="1" vertex="1">
          <mxGeometry x="1540" y="-1147.5" width="200" height="20" as="geometry" />
        </mxCell>
        <mxCell id="gxmgwyy8D1BKnNXjqqN9-324" value="history.yaml" style="rounded=0;html=1;labelBorderColor=none;labelBackgroundColor=none;fillColor=#FFB366;movable=0;resizable=0;rotatable=0;deletable=0;editable=0;locked=1;connectable=0;" parent="1" vertex="1">
          <mxGeometry x="1540" y="-1117.5" width="200" height="20" as="geometry" />
        </mxCell>
        <mxCell id="gxmgwyy8D1BKnNXjqqN9-325" value="history_HTEC.yaml" style="rounded=0;html=1;labelBorderColor=none;labelBackgroundColor=none;fillColor=#FFB366;movable=0;resizable=0;rotatable=0;deletable=0;editable=0;locked=1;connectable=0;" parent="1" vertex="1">
          <mxGeometry x="1540" y="-1087.5" width="200" height="20" as="geometry" />
        </mxCell>
        <mxCell id="gxmgwyy8D1BKnNXjqqN9-326" value="performance.yaml" style="rounded=0;html=1;labelBorderColor=none;labelBackgroundColor=none;fillColor=#FFB366;movable=0;resizable=0;rotatable=0;deletable=0;editable=0;locked=1;connectable=0;" parent="1" vertex="1">
          <mxGeometry x="1540" y="-1027.5" width="200" height="20" as="geometry" />
        </mxCell>
        <mxCell id="gxmgwyy8D1BKnNXjqqN9-328" value="" style="endArrow=classic;html=1;rounded=0;entryX=0;entryY=0.25;entryDx=0;entryDy=0;exitX=1;exitY=0.5;exitDx=0;exitDy=0;movable=0;resizable=0;rotatable=0;deletable=0;editable=0;locked=1;connectable=0;" parent="1" source="gxmgwyy8D1BKnNXjqqN9-321" target="gxmgwyy8D1BKnNXjqqN9-322" edge="1">
          <mxGeometry width="50" height="50" relative="1" as="geometry">
            <mxPoint x="1700" y="-982.5" as="sourcePoint" />
            <mxPoint x="1760" y="-1022.5" as="targetPoint" />
          </mxGeometry>
        </mxCell>
        <mxCell id="gxmgwyy8D1BKnNXjqqN9-329" value="" style="endArrow=classic;html=1;rounded=0;entryX=0;entryY=0.5;entryDx=0;entryDy=0;exitX=1;exitY=0.5;exitDx=0;exitDy=0;movable=0;resizable=0;rotatable=0;deletable=0;editable=0;locked=1;connectable=0;" parent="1" source="gxmgwyy8D1BKnNXjqqN9-321" target="gxmgwyy8D1BKnNXjqqN9-354" edge="1">
          <mxGeometry width="50" height="50" relative="1" as="geometry">
            <mxPoint x="1700" y="-982.5" as="sourcePoint" />
            <mxPoint x="1610" y="-775" as="targetPoint" />
          </mxGeometry>
        </mxCell>
        <mxCell id="gxmgwyy8D1BKnNXjqqN9-330" value="" style="endArrow=classic;html=1;rounded=0;entryX=0;entryY=0.5;entryDx=0;entryDy=0;exitX=1;exitY=0.5;exitDx=0;exitDy=0;movable=0;resizable=0;rotatable=0;deletable=0;editable=0;locked=1;connectable=0;" parent="1" source="gxmgwyy8D1BKnNXjqqN9-321" target="gxmgwyy8D1BKnNXjqqN9-323" edge="1">
          <mxGeometry width="50" height="50" relative="1" as="geometry">
            <mxPoint x="1700" y="-982.5" as="sourcePoint" />
            <mxPoint x="1750" y="-1022.5" as="targetPoint" />
          </mxGeometry>
        </mxCell>
        <mxCell id="gxmgwyy8D1BKnNXjqqN9-331" value="" style="endArrow=classic;html=1;rounded=0;entryX=0;entryY=0.5;entryDx=0;entryDy=0;exitX=1;exitY=0.5;exitDx=0;exitDy=0;movable=0;resizable=0;rotatable=0;deletable=0;editable=0;locked=1;connectable=0;" parent="1" source="gxmgwyy8D1BKnNXjqqN9-321" target="gxmgwyy8D1BKnNXjqqN9-325" edge="1">
          <mxGeometry width="50" height="50" relative="1" as="geometry">
            <mxPoint x="1700" y="-982.5" as="sourcePoint" />
            <mxPoint x="1740" y="-955" as="targetPoint" />
          </mxGeometry>
        </mxCell>
        <mxCell id="gxmgwyy8D1BKnNXjqqN9-332" value="" style="endArrow=classic;html=1;rounded=0;entryX=0;entryY=0.5;entryDx=0;entryDy=0;exitX=1;exitY=0.5;exitDx=0;exitDy=0;movable=0;resizable=0;rotatable=0;deletable=0;editable=0;locked=1;connectable=0;" parent="1" source="gxmgwyy8D1BKnNXjqqN9-321" target="gxmgwyy8D1BKnNXjqqN9-326" edge="1">
          <mxGeometry width="50" height="50" relative="1" as="geometry">
            <mxPoint x="1700" y="-982.5" as="sourcePoint" />
            <mxPoint x="1735" y="-947.5" as="targetPoint" />
            <Array as="points" />
          </mxGeometry>
        </mxCell>
        <mxCell id="gxmgwyy8D1BKnNXjqqN9-333" value="" style="endArrow=classic;html=1;rounded=0;entryX=0;entryY=0.5;entryDx=0;entryDy=0;exitX=1;exitY=0.5;exitDx=0;exitDy=0;movable=0;resizable=0;rotatable=0;deletable=0;editable=0;locked=1;connectable=0;" parent="1" source="gxmgwyy8D1BKnNXjqqN9-321" target="gxmgwyy8D1BKnNXjqqN9-324" edge="1">
          <mxGeometry width="50" height="50" relative="1" as="geometry">
            <mxPoint x="1700" y="-982.5" as="sourcePoint" />
            <mxPoint x="1740" y="-997.5" as="targetPoint" />
          </mxGeometry>
        </mxCell>
        <mxCell id="gxmgwyy8D1BKnNXjqqN9-334" value="rocm-image-release.yaml" style="rounded=0;html=1;labelBorderColor=none;labelBackgroundColor=none;fillColor=#FFB366;movable=0;resizable=0;rotatable=0;deletable=0;editable=0;locked=1;connectable=0;" parent="1" vertex="1">
          <mxGeometry x="1540" y="-967.5" width="200" height="20" as="geometry" />
        </mxCell>
        <mxCell id="gxmgwyy8D1BKnNXjqqN9-335" value="" style="endArrow=classic;html=1;rounded=0;exitX=1;exitY=0.5;exitDx=0;exitDy=0;entryX=0;entryY=0.5;entryDx=0;entryDy=0;movable=0;resizable=0;rotatable=0;deletable=0;editable=0;locked=1;connectable=0;" parent="1" source="gxmgwyy8D1BKnNXjqqN9-321" target="gxmgwyy8D1BKnNXjqqN9-334" edge="1">
          <mxGeometry width="50" height="50" relative="1" as="geometry">
            <mxPoint x="1700" y="-982.5" as="sourcePoint" />
            <mxPoint x="1850" y="-722.5" as="targetPoint" />
          </mxGeometry>
        </mxCell>
        <mxCell id="gxmgwyy8D1BKnNXjqqN9-337" value="" style="verticalLabelPosition=bottom;verticalAlign=top;html=1;shape=mxgraph.basic.x;fillColor=#FF0000;movable=0;resizable=0;rotatable=0;deletable=0;editable=0;locked=1;connectable=0;" parent="1" vertex="1">
          <mxGeometry x="1740" y="-1177.5" width="20" height="20" as="geometry" />
        </mxCell>
        <mxCell id="gxmgwyy8D1BKnNXjqqN9-338" value="add-to-project.yaml" style="rounded=0;html=1;labelBorderColor=none;labelBackgroundColor=none;fillColor=#FFB366;movable=0;resizable=0;rotatable=0;deletable=0;editable=0;locked=1;connectable=0;" parent="1" vertex="1">
          <mxGeometry x="75" y="-1148.75" width="140" height="20" as="geometry" />
        </mxCell>
        <mxCell id="gxmgwyy8D1BKnNXjqqN9-339" value="benchmark.yaml" style="rounded=0;html=1;labelBorderColor=none;labelBackgroundColor=none;fillColor=#FFB366;movable=0;resizable=0;rotatable=0;deletable=0;editable=0;locked=1;connectable=0;" parent="1" vertex="1">
          <mxGeometry x="75" y="-1118.75" width="140" height="20" as="geometry" />
        </mxCell>
        <mxCell id="gxmgwyy8D1BKnNXjqqN9-340" value="ci.yaml" style="rounded=0;html=1;labelBorderColor=none;labelBackgroundColor=none;fillColor=#FFB366;movable=0;resizable=0;rotatable=0;deletable=0;editable=0;locked=1;connectable=0;" parent="1" vertex="1">
          <mxGeometry x="75" y="-1088.75" width="140" height="20" as="geometry" />
        </mxCell>
        <mxCell id="gxmgwyy8D1BKnNXjqqN9-341" value="history.yaml" style="rounded=0;html=1;labelBorderColor=none;labelBackgroundColor=none;fillColor=#FFB366;movable=0;resizable=0;rotatable=0;deletable=0;editable=0;locked=1;connectable=0;" parent="1" vertex="1">
          <mxGeometry x="75" y="-1058.75" width="140" height="20" as="geometry" />
        </mxCell>
        <mxCell id="gxmgwyy8D1BKnNXjqqN9-342" value="performance.yaml" style="rounded=0;html=1;labelBorderColor=none;labelBackgroundColor=none;fillColor=#FFB366;movable=0;resizable=0;rotatable=0;deletable=0;editable=0;locked=1;connectable=0;" parent="1" vertex="1">
          <mxGeometry x="75" y="-1028.75" width="140" height="20" as="geometry" />
        </mxCell>
        <mxCell id="gxmgwyy8D1BKnNXjqqN9-343" value="sync-onnxrt-main.yaml" style="rounded=0;html=1;labelBorderColor=none;labelBackgroundColor=none;fillColor=#FFB366;movable=0;resizable=0;rotatable=0;deletable=0;editable=0;locked=1;connectable=0;" parent="1" vertex="1">
          <mxGeometry x="75" y="-963.75" width="140" height="20" as="geometry" />
        </mxCell>
        <mxCell id="gxmgwyy8D1BKnNXjqqN9-344" value="rocm-image-release.yaml" style="rounded=0;html=1;labelBorderColor=none;labelBackgroundColor=none;fillColor=#FFB366;movable=0;resizable=0;rotatable=0;deletable=0;editable=0;locked=1;connectable=0;" parent="1" vertex="1">
          <mxGeometry x="75" y="-998.75" width="140" height="20" as="geometry" />
        </mxCell>
        <mxCell id="gxmgwyy8D1BKnNXjqqN9-346" value="" style="endArrow=classic;html=1;rounded=0;entryX=1;entryY=0.5;entryDx=0;entryDy=0;exitX=1;exitY=0.5;exitDx=0;exitDy=0;movable=0;resizable=0;rotatable=0;deletable=0;editable=0;locked=1;connectable=0;" parent="1" source="gxmgwyy8D1BKnNXjqqN9-310" target="gxmgwyy8D1BKnNXjqqN9-344" edge="1">
          <mxGeometry width="50" height="50" relative="1" as="geometry">
            <mxPoint x="405" y="-1065" as="sourcePoint" />
            <mxPoint x="340" y="-1005" as="targetPoint" />
          </mxGeometry>
        </mxCell>
        <mxCell id="gxmgwyy8D1BKnNXjqqN9-347" value="" style="endArrow=classic;html=1;rounded=0;entryX=1;entryY=0.5;entryDx=0;entryDy=0;exitX=1;exitY=0.5;exitDx=0;exitDy=0;movable=0;resizable=0;rotatable=0;deletable=0;editable=0;locked=1;connectable=0;" parent="1" source="gxmgwyy8D1BKnNXjqqN9-310" target="gxmgwyy8D1BKnNXjqqN9-343" edge="1">
          <mxGeometry width="50" height="50" relative="1" as="geometry">
            <mxPoint x="415" y="-1055" as="sourcePoint" />
            <mxPoint x="350" y="-995" as="targetPoint" />
          </mxGeometry>
        </mxCell>
        <mxCell id="gxmgwyy8D1BKnNXjqqN9-348" value="backup_test.yml" style="rounded=0;html=1;labelBorderColor=none;labelBackgroundColor=none;fillColor=#FFB366;movable=0;resizable=0;rotatable=0;deletable=0;editable=0;locked=1;connectable=0;" parent="1" vertex="1">
          <mxGeometry x="1540" y="-1207.5" width="200" height="20" as="geometry" />
        </mxCell>
        <mxCell id="gxmgwyy8D1BKnNXjqqN9-349" value="" style="endArrow=classic;html=1;rounded=0;entryX=0;entryY=0.5;entryDx=0;entryDy=0;exitX=1;exitY=0.5;exitDx=0;exitDy=0;movable=0;resizable=0;rotatable=0;deletable=0;editable=0;locked=1;connectable=0;" parent="1" source="gxmgwyy8D1BKnNXjqqN9-321" target="gxmgwyy8D1BKnNXjqqN9-348" edge="1">
          <mxGeometry width="50" height="50" relative="1" as="geometry">
            <mxPoint x="1425" y="-1027.5" as="sourcePoint" />
            <mxPoint x="1585" y="-1132.5" as="targetPoint" />
          </mxGeometry>
        </mxCell>
        <mxCell id="gxmgwyy8D1BKnNXjqqN9-350" value="miopen_database.yaml" style="rounded=0;html=1;labelBorderColor=none;labelBackgroundColor=none;fillColor=#FFB366;movable=0;resizable=0;rotatable=0;deletable=0;editable=0;locked=1;connectable=0;" parent="1" vertex="1">
          <mxGeometry x="1540" y="-1057.5" width="200" height="20" as="geometry" />
        </mxCell>
        <mxCell id="gxmgwyy8D1BKnNXjqqN9-351" value="" style="endArrow=classic;html=1;rounded=0;entryX=0;entryY=0.5;entryDx=0;entryDy=0;exitX=1;exitY=0.5;exitDx=0;exitDy=0;movable=0;resizable=0;rotatable=0;deletable=0;editable=0;locked=1;connectable=0;" parent="1" source="gxmgwyy8D1BKnNXjqqN9-321" target="gxmgwyy8D1BKnNXjqqN9-350" edge="1">
          <mxGeometry width="50" height="50" relative="1" as="geometry">
            <mxPoint x="1460" y="-980" as="sourcePoint" />
            <mxPoint x="1620" y="-990" as="targetPoint" />
          </mxGeometry>
        </mxCell>
        <mxCell id="gxmgwyy8D1BKnNXjqqN9-352" value="performance_HTEC.yaml" style="rounded=0;html=1;labelBorderColor=none;labelBackgroundColor=none;fillColor=#FFB366;movable=0;resizable=0;rotatable=0;deletable=0;editable=0;locked=1;connectable=0;" parent="1" vertex="1">
          <mxGeometry x="1540" y="-997.5" width="200" height="20" as="geometry" />
        </mxCell>
        <mxCell id="gxmgwyy8D1BKnNXjqqN9-353" value="" style="endArrow=classic;html=1;rounded=0;entryX=0;entryY=0.5;entryDx=0;entryDy=0;exitX=1;exitY=0.5;exitDx=0;exitDy=0;movable=0;resizable=0;rotatable=0;deletable=0;editable=0;locked=1;connectable=0;" parent="1" source="gxmgwyy8D1BKnNXjqqN9-321" target="gxmgwyy8D1BKnNXjqqN9-352" edge="1">
          <mxGeometry width="50" height="50" relative="1" as="geometry">
            <mxPoint x="1460" y="-980" as="sourcePoint" />
            <mxPoint x="1620" y="-930" as="targetPoint" />
            <Array as="points" />
          </mxGeometry>
        </mxCell>
        <mxCell id="gxmgwyy8D1BKnNXjqqN9-354" value="rocm-image-release_HTEC.yaml" style="rounded=0;html=1;labelBorderColor=none;labelBackgroundColor=none;fillColor=#FFB366;movable=0;resizable=0;rotatable=0;deletable=0;editable=0;locked=1;connectable=0;" parent="1" vertex="1">
          <mxGeometry x="1540" y="-937.5" width="200" height="20" as="geometry" />
        </mxCell>
        <mxCell id="gxmgwyy8D1BKnNXjqqN9-358" value="" style="verticalLabelPosition=bottom;verticalAlign=top;html=1;shape=mxgraph.basic.x;fillColor=#FF0000;movable=0;resizable=0;rotatable=0;deletable=0;editable=0;locked=1;connectable=0;" parent="1" vertex="1">
          <mxGeometry x="1740" y="-1207.5" width="20" height="20" as="geometry" />
        </mxCell>
        <mxCell id="gxmgwyy8D1BKnNXjqqN9-362" value="" style="endArrow=classic;html=1;rounded=0;exitX=1;exitY=0.5;exitDx=0;exitDy=0;entryX=0;entryY=0.5;entryDx=0;entryDy=0;movable=0;resizable=0;rotatable=0;deletable=0;editable=0;locked=1;connectable=0;" parent="1" source="xwbP8etTTOFJ-Utlb-hV-6" target="gxmgwyy8D1BKnNXjqqN9-321" edge="1">
          <mxGeometry width="50" height="50" relative="1" as="geometry">
            <mxPoint x="1220" y="-900" as="sourcePoint" />
            <mxPoint x="1280" y="-840" as="targetPoint" />
          </mxGeometry>
        </mxCell>
        <mxCell id="gxmgwyy8D1BKnNXjqqN9-363" value="" style="endArrow=classic;html=1;rounded=0;exitX=0;exitY=0.5;exitDx=0;exitDy=0;entryX=0;entryY=0.5;entryDx=0;entryDy=0;movable=0;resizable=0;rotatable=0;deletable=0;editable=0;locked=1;connectable=0;" parent="1" source="xwbP8etTTOFJ-Utlb-hV-17" target="gxmgwyy8D1BKnNXjqqN9-310" edge="1">
          <mxGeometry width="50" height="50" relative="1" as="geometry">
            <mxPoint x="1060" y="-840" as="sourcePoint" />
            <mxPoint x="1110" y="-890" as="targetPoint" />
          </mxGeometry>
        </mxCell>
        <mxCell id="gxmgwyy8D1BKnNXjqqN9-366" value="" style="endArrow=classic;html=1;rounded=0;exitX=0;exitY=0.5;exitDx=0;exitDy=0;entryX=1;entryY=0.5;entryDx=0;entryDy=0;strokeWidth=3;movable=0;resizable=0;rotatable=0;deletable=0;editable=0;locked=1;connectable=0;" parent="1" source="gxmgwyy8D1BKnNXjqqN9-143" target="xwbP8etTTOFJ-Utlb-hV-17" edge="1">
          <mxGeometry width="50" height="50" relative="1" as="geometry">
            <mxPoint x="880" y="-900" as="sourcePoint" />
            <mxPoint x="870" y="-800" as="targetPoint" />
          </mxGeometry>
        </mxCell>
        <mxCell id="gxmgwyy8D1BKnNXjqqN9-367" value="" style="verticalLabelPosition=bottom;verticalAlign=top;html=1;shape=mxgraph.basic.x;fillColor=#FF0000;movable=0;resizable=0;rotatable=0;deletable=0;editable=0;locked=1;connectable=0;" parent="1" vertex="1">
          <mxGeometry x="410" y="-723.75" width="10" height="10" as="geometry" />
        </mxCell>
        <mxCell id="gxmgwyy8D1BKnNXjqqN9-368" value="" style="verticalLabelPosition=bottom;verticalAlign=top;html=1;shape=mxgraph.basic.x;fillColor=#FF0000;movable=0;resizable=0;rotatable=0;deletable=0;editable=0;locked=1;connectable=0;" parent="1" vertex="1">
          <mxGeometry x="410" y="-593.75" width="10" height="10" as="geometry" />
        </mxCell>
        <mxCell id="gxmgwyy8D1BKnNXjqqN9-369" value="" style="verticalLabelPosition=bottom;verticalAlign=top;html=1;shape=mxgraph.basic.x;fillColor=#FF0000;movable=0;resizable=0;rotatable=0;deletable=0;editable=0;locked=1;connectable=0;" parent="1" vertex="1">
          <mxGeometry x="410" y="-306.25" width="10" height="10" as="geometry" />
        </mxCell>
        <mxCell id="gxmgwyy8D1BKnNXjqqN9-370" value="" style="verticalLabelPosition=bottom;verticalAlign=top;html=1;shape=mxgraph.basic.x;fillColor=#FF0000;movable=0;resizable=0;rotatable=0;deletable=0;editable=0;locked=1;connectable=0;" parent="1" vertex="1">
          <mxGeometry x="450" y="-38.75" width="10" height="10" as="geometry" />
        </mxCell>
        <mxCell id="DQUAqVSNPgO8_BaYZD6j-1" value="" style="verticalLabelPosition=bottom;verticalAlign=top;html=1;shape=mxgraph.basic.tick;fillColor=#00FF00;movable=0;resizable=0;rotatable=0;deletable=0;editable=0;locked=1;connectable=0;" vertex="1" parent="1">
          <mxGeometry x="1012.5" y="-900" width="15" height="20" as="geometry" />
        </mxCell>
        <mxCell id="DQUAqVSNPgO8_BaYZD6j-2" value="" style="verticalLabelPosition=bottom;verticalAlign=top;html=1;shape=mxgraph.basic.tick;fillColor=#00FF00;movable=0;resizable=0;rotatable=0;deletable=0;editable=0;locked=1;connectable=0;" vertex="1" parent="1">
          <mxGeometry x="1012.5" y="-820" width="15" height="20" as="geometry" />
        </mxCell>
        <mxCell id="DQUAqVSNPgO8_BaYZD6j-3" value="" style="verticalLabelPosition=bottom;verticalAlign=top;html=1;shape=mxgraph.basic.tick;fillColor=#00FF00;movable=1;resizable=1;rotatable=1;deletable=1;editable=1;locked=0;connectable=1;" vertex="1" parent="1">
          <mxGeometry x="1330" y="-1078.75" width="15" height="20" as="geometry" />
        </mxCell>
        <mxCell id="DQUAqVSNPgO8_BaYZD6j-4" value="" style="verticalLabelPosition=bottom;verticalAlign=top;html=1;shape=mxgraph.basic.tick;fillColor=#00FF00;movable=0;resizable=0;rotatable=0;deletable=0;editable=0;locked=1;connectable=0;" vertex="1" parent="1">
          <mxGeometry x="1332.5" y="-665" width="15" height="20" as="geometry" />
        </mxCell>
        <mxCell id="DQUAqVSNPgO8_BaYZD6j-5" value="" style="verticalLabelPosition=bottom;verticalAlign=top;html=1;shape=mxgraph.basic.tick;fillColor=#00FF00;movable=0;resizable=0;rotatable=0;deletable=0;editable=0;locked=1;connectable=0;" vertex="1" parent="1">
          <mxGeometry x="1332.5" y="-30" width="15" height="20" as="geometry" />
        </mxCell>
      </root>
    </mxGraphModel>
  </diagram>
</mxfile>
